<?xml version="1.0" encoding="UTF-8"?>
<svg xmlns="http://www.w3.org/2000/svg" xmlns:xlink="http://www.w3.org/1999/xlink" viewBox="0 0 1200 600">
<rect fill="#171796" width="1200" height="600"/>
<rect fill="#fff" width="1200" height="400"/>
<rect fill="#f00" width="1200" height="200"/>
<g transform="scale(0.296202)">
<g>
<path fill="#f00" d="m2025.77,1536.74,0,0c216.58,0,393.77-177.20,393.77-393.77v-467.91h-787.55v467.91c0,216.58,177.20,393.77,393.77,393.77z"/>
<path fill="#fff" d="m2025.77,1530.43,0,0c212.45,0,386.26-173.82,386.26-386.26v-461.53h-772.53v461.53c0,212.45,173.82,386.26,386.27,386.26z"/>
<g fill="#f00">
<path d="m1802.54,697.16-148.65,0,0,163.32,148.65,0z"/>
<path d="m1802.54,1023.79,148.65,0,0-163.31-148.65,0z"/>
<path d="m1653.89,1143.26c0,14.83,.92,29.46,2.63,43.85h146.02v-163.32h-148.65v119.47z"/>
<path d="m2099.85,1023.79-148.66,0,0,163.32,148.66,0z"/>
<path d="m2099.85,1350.42,148.65,0,0-163.31-148.65,0z"/>
<path d="m2248.50,1439.76c32.96-24.88,61.69-55.09,84.87-89.33h-84.87v89.33z"/>
<path d="m1802.55,1350.42,148.65,0,0-163.31-148.65,0z"/>
<path d="m1717.54,1350.42c23.21,34.29,51.99,64.54,85.01,89.44v-89.44h-85.01z"/>
<path d="m2051.41,1513.74c16.45-1.15,32.62-3.37,48.43-6.61v-156.71h-148.65v156.73c15.76,3.23,31.89,5.44,48.29,6.58,17.31,1.07,34.62,1.01,51.92,0z"/>
<path d="m2394.37,1187.11c1.72-14.44,2.64-29.12,2.64-44.00v-119.31h-148.52v163.32h145.88z"/>
<path d="m2099.85,1023.79,148.65,0,0-163.31-148.65,0z"/>
<path d="m2099.85,697.16-148.65,0,0,163.32,148.65,0z"/>
<path d="m2397.01,860.48,0-163.32-148.51,0,0,163.32z"/>
</g>
</g>
<g>
<path fill="#fff" d="m2405.33,670.27,92.17-208.93-70.22-113.39-116.34,43.07-81.68-93.37-107.63,61.68-95.97-78.60-95.97,78.60-107.63-61.68-81.69,93.36-116.34-43.07-70.24,113.42,92.05,208.97c115.99-52.50,244.60-81.75,379.83-81.75,135.17,0,263.72,29.23,379.68,81.69z"/>
<g>
<path fill="#0093dd" d="m1742.93,400.24-.17,.20-115.37-42.72-64.56,104.24,24.73,56.23,62.65,142.22c46.78-20.68,95.55-37.64,145.94-50.48l-53.21-209.68z"/>
<path fill="#fff" stroke="#000" stroke-width="1.18162625" d="m1736.29,503.32c4.13,7.83,6.47,16.74,6.47,26.17,0,31.06-25.33,56.39-56.39,56.39-27.37,0-50.29-19.68-55.35-45.61,9.74,17.22,28.23,28.88,49.35,28.88,31.21,0,56.67-25.45,56.67-56.67,0-3.12-.26-6.18-.75-9.17z"/>
<polygon fill="#000" points="1684.61,425.30,1684.42,426.23,1680.49,446.47,1696.02,460.04,1696.73,460.66,1695.83,460.97,1676.34,467.69,1672.35,487.92,1672.16,488.85,1671.45,488.22,1655.89,474.70,1636.38,481.36,1635.47,481.67,1635.66,480.73,1639.59,460.50,1624.07,446.93,1623.35,446.30,1624.25,445.99,1643.74,439.28,1647.73,419.05,1647.92,418.12,1648.63,418.74,1664.19,432.27,1683.70,425.61"/>
<g fill="#f7db17">
<path d="m1661.19,454.04,14.55,12.69,18.21-6.27z"/>
<path d="m1661.31,453.40,32.77,6.41-14.50-12.68z"/>
<path d="m1626.13,446.51,32.76,6.41-14.55-12.68z"/>
<path d="m1658.77,453.57-32.77-6.41,14.50,12.67z"/>
<path d="m1660.60,452.34,21.94-25.17-18.23,6.22z"/>
<path d="m1637.04,479.37,21.94-25.17-18.26,6.26z"/>
<path d="m1659.48,454.63-21.94,25.17,18.23-6.22z"/>
<path d="m1683.04,427.60-21.94,25.17,18.26-6.26z"/>
<path d="m1659.33,452.42-10.83-31.58-3.73,18.90z"/>
<path d="m1670.96,486.34-10.83-31.58-3.71,18.94z"/>
<path d="m1660.75,454.54,10.83,31.59,3.73-18.90z"/>
<path d="m1649.12,420.62,10.83,31.59,3.71-18.95z"/>
</g>
</g>
<g>
<path fill="#171796" d="m1930.69,368.86-.20,.16-106.73-61.16-80.83,92.38,53.21,209.68c49.38-12.57,100.31-21.15,152.42-25.46l-17.88-215.60z"/>
<g fill="#f00">
<path d="m1782.94,557.88c52.21-13.29,106.08-22.37,161.19-26.92l-4.52-54.50c-58.16,4.81-115.02,14.39-170.13,28.41l13.45,53.01z"/>
<path d="m1756.19,452.50c57.97-14.76,117.77-24.83,178.95-29.89l-4.44-53.50c-64.18,5.30-126.91,15.88-187.72,31.35l13.21,52.04z"/>
</g>
</g>
<g>
<path fill="#0093dd" d="m2121.05,368.90-.23,.13-95.17-77.94-94.97,77.78,17.88,215.60c25.43-2.10,51.13-3.22,77.09-3.22,26.08,0,51.90,1.13,77.44,3.25l17.95-215.60z"/>
<g id="lion">
<path fill="#000" d="m2025.45,465.85c-.18-.02-.44,.10-.69,.45-1.86,2.50-3.59,4.69-5.45,7.20-1.95,.61-2.42,1.80-1.67,3.48-2.61-.26-2.91,1.93-3.02,4.32-2.50-3.79-5.22-4.82-8.14-3.07-.11-2.30-1.87-3.38-4.39-3.92-1.80-.10-3.19-.65-4.36-1.45-.60-.42-1.10-.64-1.70-1.06-1.26-.88-2.26-.05-1.72,.74,2.67,4.34,5.35,8.68,8.02,13.02-.14,.80,.06,1.51,.88,2.04,.47,1.33,.93,2.65,1.40,3.97-.11,.38-.21,.75-.32,1.13-2.21-1.05-4.43-1.18-6.64-1.33-1.70-.08-2.87-.50-3.61-1.37-.54-.63-.91-.26-.92,.82-.03,5.34,1.62,10.14,5.99,14.92-2.31,.04-4.62,.11-6.94,.21-.79,.06-.95,.39-.73,1.04,1.26,3.04,3.39,5.79,8.22,7.66-2.08,1.12-3.27,2.85-3.57,5.20-.09,2.24-.75,3.82-2.12,4.55-.60,.32-.81,.65-.24,1.06,2.53,1.85,5.65,1.93,8.95,1.12-1.57,2.70-2.26,5.53-1.98,8.50,2.08,.56,4.12,.15,6.14-.52-.29,.61-.44,1.75-.52,3.09-.07,1.15-.41,2.29-1.04,3.43-.32,.33-.65,.84,.04,1.02,3.36,.91,6.48,.52,9.15-.47,0,2.43,.02,4.87,.76,7.27,.18,.58,.70,1.02,1.25,.26,1.55-2.14,3.22-3.96,5.27-5.17,.31,.90,.75,1.68,1.56,2.15,.96,.55,1.47,1.70,1.53,3.43,0,.30-.02,.60,.35,.90,1.49,.07,5.14-3.80,5.89-5.97,2.06,1.21,2.84,2.46,4.39,4.61,.55,.76,.99,.29,1.28-.25,.62-2.43,.67-4.81,.66-7.24,2.67,.99,5.79,1.38,9.15,.47,.69-.19,.36-.70,.04-1.02-.62-1.14-1.05-2.50-1.13-3.65-.09-1.33-.14-2.26-.43-2.87,2.02,.68,4.05,1.08,6.14,.52,.29-2.97-.53-5.79-2.11-8.50,3.30,.80,6.55,.73,9.08-1.12,.57-.41,.35-.74-.24-1.06-1.36-.73-2.03-2.31-2.12-4.55-.30-2.35-1.49-4.09-3.57-5.20,4.83-1.87,6.96-4.63,8.22-7.66,.22-.66,.06-.99-.73-1.04-2.31-.10-4.80-.24-7.11-.27,4.37-4.78,6.06-9.61,6.04-14.95-.01-1.08-.38-1.46-.92-.82-.74,.87-1.79,1.37-3.48,1.46-2.22,.15-4.35,.24-6.56,1.28-.11-.38-.21-.75-.32-1.13,.46-1.32,1.06-2.60,1.53-3.93,.82-.53,1.02-1.23,.88-2.04,2.67-4.34,5.13-8.68,7.81-13.02,.54-.79-.46-1.62-1.71-.74-.60,.42-1.10,.64-1.70,1.06-1.17,.80-2.57,1.34-4.37,1.45-2.51,.54-4.17,1.67-4.28,3.97-2.93-1.75-5.64-.73-8.14,3.07-.11-2.39-.41-4.57-3.02-4.32,.75-1.68,.17-2.91-1.78-3.52-1.86-2.50-4.58-4.70-6.44-7.20-.31-.35-.51-.47-.69-.45z"/>
<g fill="#f7db17">
<path d="m2050.75,479.78c-.51-.26-1.24,.17-1.62,.95s-.33,1.70,.19,1.96c.40,.20,.84-.06,1.19-.56l.22-.36c.02-.03,.04-.06,.05-.09,.38-.78,.49-1.63-.02-1.88z"/>
<path d="m2000.67,479.78c.52-.26,1.24,.17,1.62,.95s.39,1.65-.13,1.91-1.03-.24-1.41-1.02-.60-1.58-.09-1.84z"/>
<path d="m2046.06,488.83c-.32,0-.59,.27-.59,.59s.26,.59,.59,.59,.59-.26,.59-.59c0-.32-.26-.59-.59-.59z"/>
<path d="m2005.74,488.83c-.32,0-.59,.26-.59,.59,0,.32,.26,.59,.59,.59s.59-.26,.59-.59-.26-.59-.59-.59z"/>
<path d="m2048.68,485.79c-7.54-.91-15.06-1.33-22.60-1.33s-15.09,.41-22.69,1.15c-.26,.08-.21,.90,.14,.86,7.56-.73,15.07-1.13,22.56-1.13,7.43,0,14.85,.40,22.28,1.29,.39,.04,.54-.80,.32-.84z"/>
<path d="m2003.19,484.95c7.68-.75,15.30-1.17,22.89-1.16,7.54,0,15.07,.42,22.61,1.33l1.11-1.84c-.32,.10-.62,.09-.90-.05-.76-.38-.92-1.61-.36-2.74,.56-1.14,1.64-1.75,2.40-1.38,.39,.19,.62,.62,.68,1.14l4.46-7.39c-2.04,1.30-3.28,2.14-5.81,2.52-2.81,.41-4.09,1.39-3.68,3.07,.38,1.56-.57,1.33-2.01,.54-3.14-1.71-5.41,.71-6.52,3.53-.73,1.86-1.59,1.81-1.68-.13-.04-.70,0-1.31-.07-2.00-.21-2.23-.89-2.86-2.16-2.24-1.61,.78-1.75,.25-1.37-.58,.28-.60,.86-1.28,.66-2.21-.09-.67-.66-.92-1.51-.98-1.82-2.44-4.67-4.83-6.49-7.27-1.82,2.44-3.74,4.83-5.56,7.27-.86,.05-1.42,.30-1.52,.98-.20,.93,.52,1.57,.80,2.17,.38,.82,.23,1.35-1.37,.57-1.27-.61-1.86-.03-2.07,2.20-.07,.69-.10,1.39-.13,2.09-.09,1.94-.95,1.99-1.68,.13-1.11-2.82-3.52-5.24-6.67-3.53-1.45,.79-2.03,1.02-1.82-.54,.23-1.72-1.07-2.66-3.88-3.07-2.53-.37-3.77-1.22-5.81-2.52l4.19,6.82c.12-.25,.29-.45,.53-.57,.76-.38,1.84,.24,2.40,1.38,.56,1.13,.40,2.37-.36,2.74-.10,.05-.21,.08-.32,.10l1.00,1.63z"/>
<path d="m2047.08,494.06c-.07,.03-.07,.04-.24,.11-.46,.19-.80,.66-1.34,1.24-.57,.60-1.28,1.25-2.11,1.88-.12,.10-.25,.19-.44-.06s-.07-.35,.06-.44c.80-.62,1.49-1.24,2.04-1.82,.30-.32,.56-.63,.77-.92-.95-.11-1.90-.21-2.84-.30-.79,.24-1.57,.55-2.22,.95-.59,.35-1.07,.77-1.37,1.25-.08,.14-.16,.27-.44,.11-.27-.16-.19-.30-.11-.44,.35-.58,.91-1.07,1.58-1.47,.33-.20,.69-.38,1.06-.54-1.07-.09-2.14-.18-3.21-.25-.22,.13-.42,.29-.61,.47-.20,.19-.39,.42-.56,.67-.09,.13-.18,.26-.44,.08s-.18-.31-.08-.44c.19-.29,.41-.54,.64-.77,.03-.03,.06-.06,.09-.09-.80-.05-1.61-.10-2.41-.14-.02,.02-.05,.05-.08,.07-.21,.18-.40,.38-.55,.59s-.28,.43-.38,.67c-.06,.15-.12,.29-.41,.18-.29-.12-.23-.26-.17-.41,.12-.29,.27-.55,.45-.81,.08-.11,.18-.22,.27-.33-1.15-.05-2.30-.09-3.44-.12-.04,.05-.09,.08-.14,.11-.25,.15-.47,.32-.66,.51s-.35,.40-.48,.63c-.08,.14-.16,.28-.43,.12-.28-.16-.20-.29-.12-.43,.16-.28,.35-.54,.59-.77,.07-.07,.14-.13,.21-.19-1.22-.02-2.44-.04-3.65-.04-1.20,0-2.40,.01-3.60,.03,.08,.07,.15,.13,.22,.20,.23,.23,.42,.49,.59,.77,.08,.14,.16,.27-.12,.43s-.35,.02-.44-.12c-.13-.23-.29-.44-.48-.63s-.41-.36-.66-.51c-.06-.03-.12-.07-.15-.12-1.15,.02-2.30,.06-3.45,.11,.11,.11,.20,.23,.29,.35,.19,.25,.33,.52,.45,.81,.06,.15,.12,.29-.17,.41s-.35-.03-.41-.18c-.09-.24-.22-.46-.38-.67-.15-.21-.34-.41-.55-.59-.04-.03-.07-.06-.10-.10-.81,.04-1.62,.08-2.43,.13,.04,.04,.09,.08,.13,.12,.24,.23,.45,.48,.64,.77,.09,.13,.18,.26-.08,.44s-.35,.05-.44-.08c-.18-.26-.36-.48-.56-.67s-.41-.35-.64-.49c-.01-.01-.03-.02-.05-.03-1.10,.07-2.20,.14-3.30,.23,.43,.18,.85,.38,1.22,.61,.67,.40,1.24,.89,1.58,1.47,.08,.14,.16,.27-.11,.44-.27,.16-.35,.03-.44-.11-.29-.48-.78-.90-1.37-1.25-.72-.44-1.59-.77-2.46-1.02h-.02c-.90,.07-1.79,.15-2.68,.24,.22,.33,.51,.68,.86,1.06,.55,.58,1.24,1.20,2.04,1.82,.13,.09,.25,.19,.06,.44s-.32,.15-.44,.06c-.83-.64-1.55-1.28-2.11-1.88-.37-.38-.99-1.11-1.35-1.40-1.96-.90-3.54-1.27-5.75-1.47-1.53-.14-3.18-.09-4.58-.79,.36,.85,.75,1.64,1.26,2.29,.53,.68,1.20,1.21,2.09,1.47,.08,.02,.21,.16,.22,.25,.28,1.57,.84,2.86,1.69,3.86,.52,.60,1.14,1.10,1.88,1.49-.75-.81-1.32-1.66-1.72-2.51-.67-1.42-.90-2.86-.77-4.20,.01-.16,.03-.32,.34-.29,.32,.03,.30,.19,.29,.35-.11,1.23,.09,2.56,.72,3.87,.56,1.18,1.59,2.37,2.91,3.46,.24,.19,0,.63-.29,.55-1.54-.44-2.90-1.23-3.83-2.31-.89-1.04-1.49-2.37-1.80-3.97-.94-.32-1.65-.90-2.22-1.64-.47-.60-.85-1.31-1.18-2.05,.28,4.28,1.82,8.01,4.56,11.37,.61,.75,1.65,1.82,2.55,2.16,.92,.35,.95,1.00-.20,1.01-.34,.01-.69,.01-1.05,.01,.84,.31,1.64,.66,2.33,1.05,1.27,.73,2.17,1.62,2.24,2.73,.01,.16,.02,.32-.29,.34-.32,.02-.33-.14-.34-.29-.06-.86-.82-1.60-1.92-2.23-1.13-.65-2.59-1.17-4.02-1.60-1.54,0-3.12-.01-4.59,.03,.39,.28,.80,.57,1.31,.84,.82,.44,1.88,.86,3.43,1.22,.89,.21,1.66,.52,2.33,.91,.71,.42,1.30,.93,1.77,1.50,.10,.12,.20,.25-.05,.45s-.34,.08-.45-.05c-.42-.52-.95-.98-1.59-1.35-.61-.36-1.33-.64-2.16-.84-1.61-.38-2.72-.81-3.58-1.28-.75-.40-1.31-.82-1.84-1.23,1.80,3.93,4.50,5.73,8.35,6.89,.23,.07,.43,.13,.61,.19,.03,.01,.06,.01,.09,.02,.86,.21,1.75,.40,2.66,.55,.92,.15,1.66,.28,2.61,.37,.16,.01,.32,.03,.29,.34-.03,.32-.19,.30-.34,.29-.99-.09-1.74-.22-2.66-.38-.58-.10-1.15-.21-1.71-.33-.26,.06-.64,.09-1.07,.12-2.32,.14-4.20,2.25-4.35,4.94,0,.05,0,.11-.01,.16,.88-.80,1.79-1.57,2.73-2.12,1.17-.68,2.39-1.03,3.64-.69,.15,.04,.31,.08,.22,.39-.08,.31-.23,.27-.39,.22-1.06-.28-2.12,.03-3.16,.63-1.08,.63-2.13,1.58-3.15,2.53-.24,1.47-.82,2.85-2.05,3.77,.61,.34,1.04,.65,1.63,.45,.86-.39,1.72-.78,2.61-1.08,.91-.31,1.84-.52,2.82-.57,.16-.01,.32-.01,.33,.31s-.14,.32-.31,.33c-.91,.04-1.79,.24-2.64,.53-.75,.26-1.49,.58-2.22,.91,2.21,.47,4.60-.01,6.67-.79,.60-.22,1.05-.42,1.33-.41,.51-.30,1.12-.53,1.72-.79,.66-.28,1.32-.51,1.82-.57,.16-.02,.32-.04,.35,.28,.04,.32-.12,.33-.28,.35-1.12,.13-1.27,.21-2.22,.79,0,.21-.66,.57-1.26,.96-.36,.24-.70,.52-.87,.67-.95,.86-1.44,1.81-1.88,2.87-.29,.70-.52,1.45-.68,2.24,.55-1.08,1.21-2.11,2.01-3.03,.94-1.08,2.08-2.01,3.45-2.65,.14-.07,.29-.13,.42,.15,.13,.29-.01,.35-.15,.42-1.29,.60-2.36,1.47-3.24,2.50-.90,1.03-1.61,2.22-2.19,3.45-.31,.64-.08,.01-.42,.86,1.10-1.22,2.12-2.24,3.23-3.07,1.32-1.00,2.83-1.57,4.18-1.33,.15,.03,.31,.06,.26,.37s-.21,.28-.37,.26c-1.16-.21-2.50,.32-3.69,1.21-1.21,.92-2.44,2.23-3.66,3.61,1.84,.26,3.66-.26,5.42-.85,.91-.30,1.83-1.35,2.39-1.52,.19-.24,.38-.46,.57-.67,.33-.37,.67-.71,1.02-1.00,.12-.10,.24-.20,.45,.04s.08,.34-.04,.45c-.33,.28-.65,.60-.96,.94-.32,.35-.62,.73-.92,1.13-.06,.08-.13,.17-.24,.16-.60,.70-1.51,1.62-1.72,2.40-.57,2.10-.25,3.70-1.22,5.76,.71-.38,1.28-.81,1.75-1.34,.53-.60,.94-1.35,1.28-2.30,.37-1.04,.95-1.95,1.67-2.70,.75-.77,1.65-1.36,2.61-1.72,.15-.05,.30-.11,.41,.19s-.04,.35-.19,.41c-.87,.32-1.69,.86-2.38,1.57-.66,.68-1.19,1.51-1.53,2.47-.37,1.02-.81,1.83-1.41,2.50-.44,.50-.95,.91-1.56,1.27,.52-.03,.78-.10,1.21-.07,.79-.06,2.11-.66,2.79-1.19,.66-.51,1.16-1.20,1.54-2.06,.06-.15,.13-.29,.42-.16s.23,.27,.16,.42c-.42,.96-.99,1.74-1.73,2.31-.56,.43-1.21,.75-1.96,.93,1.61-.05,3.11-.42,4.67-1.00,.65-.24,.87-1.68,1.27-2.08,.32-.58,.66-1.12,1.05-1.58,.47-.56,1.01-1.01,1.64-1.27,.15-.06,.29-.12,.41,.18,.12,.29-.03,.35-.17,.41-.52,.21-.98,.60-1.39,1.08-.36,.42-.68,.93-.98,1.47,.10,.73-.51,2.28-.53,3.05-.07,2.05-.02,4.09,.53,6.12,.53-.71,1.07-1.34,1.62-1.92,0-.05,0-.10,.01-.15,.18-1.06,.33-2.19,.40-3.32,.07-1.12,.07-2.23-.06-3.29-.02-.16-.04-.32,.27-.35,.32-.04,.34,.12,.35,.28,.14,1.11,.14,2.26,.07,3.40-.06,.90-.16,1.80-.30,2.69,.54-.51,.53-.51,.77-1.03,.37-.80,.59-1.59,.67-2.37,.09-.80,.05-1.57-.13-2.30-.04-.15-.07-.31,.24-.38s.35,.08,.38,.24c.19,.80,.25,1.65,.14,2.52-.08,.65-.24,1.32-.49,1.99,.56-.42,1.14-.82,1.78-1.22-.04-.75-.05-1.53-.03-2.27,.02-.68,.07-1.34,.18-1.90,.04-.20,.07-.40,.47-.33s.37,.27,.33,.48c-.09,.50-.14,1.11-.16,1.77-.02,.78,0,1.62,.04,2.43,.05,.82,.49,1.85,1.25,2.30,1.03,.62,1.58,1.63,1.86,2.74,.16-1.45,.17-2.80,.03-4.00-.17-1.43-.55-2.67-1.14-3.68-.08-.14-.16-.27,.12-.44,.27-.16,.35-.02,.43,.12,.63,1.10,1.04,2.41,1.22,3.93,.17,1.46,.13,3.10-.13,4.88,1.02-.82,3.81-2.58,3.52-5.94-.07-.27-.16-.52-.28-.75-.07-.14-.14-.28,.14-.42s.35,0,.42,.14c.17,.33,.30,.69,.39,1.10,.05,.24,.08,.49,.11,.76,.13-.07,.45-.43,.51-.39,.24,.16,.58,.38,.80,.54-.21-.60-.35-1.20-.42-1.78-.10-.87-.05-1.72,.14-2.52,.04-.15,.07-.31,.38-.24s.27,.23,.24,.38c-.18,.73-.22,1.51-.13,2.30,.09,.77,.31,1.57,.67,2.37,.04,.08,.08,.16,.05,.25,.24,.21,.47,.42,.70,.65-.13-.84-.22-1.70-.28-2.55-.08-1.15-.07-2.30,.07-3.41,.02-.16,.04-.32,.35-.28s.29,.20,.27,.35c-.13,1.06-.13,2.17-.06,3.29,.07,1.13,.22,2.25,.40,3.32,.01,.02,.01,.05,.01,.07,.54,.59,.95,1.20,1.52,1.96,.55-2.03,.73-4.07,.66-6.12-.02-.76-.69-2.27-.65-3.02-.30-.55-.63-1.07-1.00-1.51-.41-.49-.87-.87-1.39-1.08-.15-.06-.29-.12-.18-.41,.12-.29,.27-.24,.41-.18,.62,.26,1.17,.71,1.64,1.27,.38,.45,.72,.98,1.03,1.54,.57,.07,.78,1.79,1.43,2.12,1.54,.57,2.98,.94,4.53,1.00-.75-.19-1.40-.50-1.95-.93-.74-.57-1.31-1.35-1.73-2.31-.06-.15-.13-.29,.16-.42s.35,.02,.42,.16c.38,.86,.88,1.56,1.54,2.06,.85,.66,2.89,1.24,4.00,1.27-.61-.37-1.13-.78-1.57-1.28-.59-.67-1.04-1.48-1.41-2.50-.34-.95-.87-1.79-1.53-2.47-.68-.71-1.50-1.24-2.38-1.57-.15-.06-.29-.11-.19-.41,.11-.29,.26-.24,.41-.19,.96,.36,1.86,.94,2.61,1.72,.72,.74,1.30,1.66,1.67,2.70,.34,.95,.75,1.69,1.28,2.30,.47,.54,1.05,.98,1.77,1.35-.98-2.07-.66-3.67-1.22-5.77-.35-1.29-2.32-2.77-1.93-3.20,.45-.51,1.33,.88,2.48,1.27,1.75,.59,3.57,1.11,5.40,.85-1.22-1.38-2.44-2.69-3.66-3.61-1.19-.90-2.37-1.40-3.52-1.20-.16,.03-.31,.06-.37-.26-.05-.31,.10-.34,.26-.37,1.35-.24,2.69,.32,4.01,1.32,1.11,.84,2.01,1.75,3.11,2.98-.18-.47,0-.14-.30-.77-.59-1.23-1.30-2.41-2.20-3.45-.89-1.02-1.96-1.89-3.24-2.50-.14-.07-.28-.13-.15-.42,.13-.28,.28-.22,.42-.15,1.37,.65,2.51,1.57,3.45,2.65,.81,.93,1.47,1.98,2.03,3.07-.15-.81-.39-1.57-.68-2.27-.44-1.06-.93-2.01-1.88-2.87-.62-.56-2.09-1.40-2.08-1.79-.29-.15-.33-.11-.63-.24-.61-.26-1.21-.46-1.64-.52-.16-.02-.32-.04-.28-.35,.04-.32,.19-.30,.35-.28,.50,.06,1.15,.28,1.82,.56,.33,.14,.66,.43,.98,.60,.53,.04,1.39,.47,2.08,.74,2.06,.78,4.46,1.26,6.66,.79-.73-.33-1.47-.65-2.23-.91-.85-.29-1.72-.49-2.64-.53-.16-.01-.32-.01-.31-.33s.17-.31,.33-.31c.98,.04,1.91,.26,2.82,.57,.89,.30,1.75,.69,2.61,1.08,.59,.27,1.01-.07,1.63-.45-1.23-.92-1.81-2.30-2.05-3.76l-.02-.02c-1.02-.95-2.07-1.90-3.15-2.53-1.04-.60-2.10-.91-3.16-.63-.15,.04-.31,.08-.39-.22-.08-.31,.07-.35,.22-.39,1.25-.33,2.47,.01,3.64,.69,.94,.55,1.86,1.32,2.74,2.13,0-.06-.01-.11-.01-.17-.15-2.70-2.03-4.80-4.35-4.94-.78-.05-1.89,.21-1.86-.32,.04-.59,.97-.44,2.34-.86,3.85-1.16,6.55-2.96,8.36-6.90-.54,.41-1.10,.83-1.86,1.24-.86,.47-1.98,.91-3.58,1.28-.82,.19-1.54,.48-2.16,.84-.64,.38-1.17,.84-1.59,1.35-.10,.12-.20,.25-.45,.05s-.14-.32-.05-.45c.47-.57,1.06-1.08,1.77-1.50,.67-.39,1.45-.70,2.33-.91,1.55-.36,2.61-.78,3.43-1.22,.51-.27,.92-.55,1.31-.84-1.48-.04-3.05-.03-4.59-.03-1.43,.44-2.89,.96-4.02,1.60-1.10,.63-1.86,1.36-1.92,2.23-.01,.16-.02,.32-.34,.29-.32-.02-.31-.18-.29-.34,.08-1.11,.97-2.00,2.24-2.73,.69-.39,1.49-.74,2.33-1.05-.35,0-.70,0-1.04-.01-1.16-.02-1.12-.66-.20-1.01,.90-.34,1.90-1.41,2.51-2.16,2.71-3.34,4.12-7.14,4.56-11.30-.33,.72-.69,1.40-1.15,1.98-.57,.73-1.28,1.31-2.22,1.64-.31,1.60-.91,2.93-1.80,3.97-.92,1.08-2.16,1.85-3.69,2.30-.29,.08-.52-.35-.29-.55,1.32-1.09,2.21-2.26,2.78-3.44,.62-1.31,.83-2.64,.72-3.87-.01-.16-.03-.32,.29-.35,.31-.03,.33,.13,.34,.29,.12,1.34-.10,2.78-.78,4.20-.40,.85-.97,1.70-1.72,2.51,.73-.39,1.36-.89,1.87-1.49,.85-1.00,1.41-2.29,1.70-3.86,.01-.08,.14-.22,.22-.25,.89-.27,1.55-.79,2.09-1.47,.51-.65,.90-1.43,1.26-2.28-1.40,.69-3.04,.64-4.57,.78-2.13,.19-3.69,.68-5.54,1.52z"/>
<path d="m2046.49,492.31c-6.80-.88-13.59-1.13-20.41-1.14-6.84,0-13.69,.40-20.58,1.12-.20,.06-.15,.33-.14,.46,.02,.28,.37,.35,1.21,.27,6.43-.60,12.85-.93,19.32-.93,6.74,0,13.51,.21,20.38,1.02,.33,.09,.77-.85,.22-.81z"/>
<path fill-rule="evenodd" d="m2005.70,491.60c6.83-.71,13.62-1.10,20.38-1.10,6.75,0,13.49,.40,20.25,1.27l.31-1.27c-.17,.09-.37,.15-.58,.15-.67,0-1.23-.55-1.23-1.23s.55-1.23,1.23-1.23c.51,0,.94,.31,1.13,.75l.60-1.70c-7.24-.84-14.46-1.22-21.71-1.22-7.29,0-14.59,.38-21.93,1.07l.58,1.64c.22-.32,.59-.54,1.01-.54,.68,0,1.23,.55,1.23,1.23s-.55,1.23-1.23,1.23c-.12,0-.25-.02-.36-.06l.33,.94-.02,.07zm30.67-4.16c-.68,0-1.23,.55-1.23,1.23s.55,1.23,1.23,1.23,1.23-.55,1.23-1.23-.55-1.23-1.23-1.23zm0,.64c-.33,0-.59,.27-.59,.59s.26,.59,.59,.59c.32,0,.59-.27,.59-.59s-.26-.59-.59-.59zm-10.82-.91c-.67,0-1.23,.55-1.23,1.23s.55,1.23,1.23,1.23,1.23-.55,1.23-1.23-.55-1.23-1.23-1.23zm0,.64c-.32,0-.59,.26-.59,.59s.26,.59,.59,.59,.59-.26,.59-.59c0-.32-.26-.59-.59-.59zm-10.64-.40c-.68,0-1.23,.55-1.23,1.23s.55,1.23,1.23,1.23c.67,0,1.23-.55,1.23-1.23s-.55-1.23-1.23-1.23zm0,.64c-.33,0-.59,.26-.59,.59s.26,.59,.59,.59c.32,0,.59-.26,.59-.59,0-.32-.26-.59-.59-.59z"/>
</g>
<g fill="#000">
<path d="m2026.01,479.74c-.14-.68-.49-1.29-1.00-1.75-.51-.47-1.16-.78-1.87-.88-.33-.04-.39-.58-.07-.68,.60-.20,1.14-.67,1.57-1.33,.45-.69,.79-1.57,.95-2.56,.05-.34,.64-.35,.69-.01,.15,.84,.51,1.53,.97,2.08,.55,.66,1.25,1.12,1.93,1.38,.31,.12,.25,.63-.08,.68-.59,.09-1.05,.42-1.41,.87-.50,.62-.81,1.45-1.00,2.21-.08,.33-.62,.31-.69-.02zm.33-1.18c.20-.52,.47-1.03,.81-1.46,.28-.34,.60-.64,.99-.84-.51-.30-1.00-.70-1.43-1.20-.28-.34-.53-.73-.73-1.16-.19,.59-.45,1.12-.75,1.58-.31,.47-.67,.86-1.08,1.16,.50,.19,.95,.47,1.34,.82,.34,.31,.63,.68,.85,1.10z"/>
<path d="m2034.33,529.71-5.15,2.06c-.17,.07-.35,.14-.48-.21-.14-.34,.04-.41,.21-.48l5.15-2.06c.17-.07,.35-.14,.48,.21,.14,.34-.04,.41-.21,.48zm.59-3.26-6.04,3.28c-.16,.09-.33,.18-.51-.15s-.01-.42,.15-.51l6.04-3.28c.16-.09,.33-.18,.51,.15s.01,.42-.15,.51zm-18.26-.65,6.04,3.28c.16,.09,.33,.18,.15,.51s-.34,.24-.51,.15l-6.04-3.28c-.16-.09-.33-.18-.15-.51s.34-.24,.51-.15zm.51,3.22,5.15,2.06c.18,.07,.35,.14,.21,.48-.14,.35-.31,.28-.49,.21l-5.15-2.06c-.17-.07-.34-.14-.21-.48,.14-.35,.31-.28,.48-.21zm2.24,4.34c1.37,.33,2.61,.48,3.58,.31,.88-.16,1.55-.60,1.91-1.46v-4.93c-1.07-.01-2.12-.15-3.03-.41-1.09-.31-1.70-.98-2.01-1.78-.41-1.07-.27-2.35-.04-3.29,.05-.18,.09-.36,.45-.27s.32,.27,.27,.45c-.20,.82-.33,1.94,.01,2.84,.23,.60,.69,1.10,1.52,1.33,.91,.25,1.98,.38,3.07,.38,1.07,0,2.14-.13,3.04-.40,.82-.24,1.48-.69,1.92-1.23s.65-1.17,.57-1.76c-.05-.36-.24-.62-.49-.80-.34-.24-.82-.35-1.28-.37-.47-.02-.94,.07-1.42,.16-.25,.05-.50,.09-.77,.13-.19,.02-.37,.05-.42-.32s.14-.40,.32-.42c.23-.03,.48-.08,.73-.12,.52-.10,1.05-.20,1.59-.18,.60,.02,1.21,.18,1.68,.51,.42,.29,.72,.72,.80,1.31,.11,.80-.16,1.63-.73,2.33-.53,.65-1.31,1.19-2.29,1.47-.83,.24-1.78,.38-2.74,.42v4.83c.03,.05,.03,.11,.02,.16,.37,.82,1.02,1.25,1.88,1.41,.97,.18,2.21,.02,3.58-.31,.18-.05,.36-.09,.45,.27,.08,.37-.09,.41-.28,.45-1.46,.35-2.79,.51-3.88,.32-.92-.17-1.65-.58-2.15-1.32-.49,.74-1.24,1.15-2.15,1.32-1.09,.20-2.42,.04-3.88-.32-.18-.04-.37-.08-.28-.45,.08-.36,.27-.32,.45-.27zm3.56,2.10,4.02-.09c.19,0,.38-.01,.38,.37,.01,.38-.18,.38-.37,.38l-4.02,.09c-.19,0-.37,.01-.38-.37s.18-.38,.37-.38z"/>
<path d="m2028.90,504.64c1.51-1.25,2.93-2.27,4.23-2.97,1.33-.72,2.54-1.11,3.59-1.06,.19,.01,.37,.01,.36,.39-.01,.37-.20,.37-.39,.36-.92-.04-2.00,.32-3.22,.97-1.25,.67-2.63,1.66-4.10,2.89-.14,.12-.29,.24-.53-.05s-.09-.41,.05-.53zm-6.05,.56c-1.41-1.30-2.98-2.40-4.45-3.14-1.39-.71-2.68-1.08-3.63-1.00-.19,.02-.37,.04-.40-.34-.04-.37,.15-.39,.34-.40,1.10-.10,2.52,.31,4.04,1.07,1.52,.77,3.15,1.91,4.61,3.25,.14,.13,.28,.25,.02,.53-.25,.27-.39,.15-.53,.02zm-2.13,10.04c.37-.83,.83-1.55,1.36-2.19,.53-.63,1.12-1.19,1.74-1.70,.14-.12,.29-.24,.52,.05,.24,.29,.09,.41-.05,.53-.59,.48-1.14,1.01-1.64,1.60-.49,.59-.91,1.25-1.25,2.01-.08,.17-.15,.34-.49,.19s-.27-.32-.19-.49zm3.71-17.34c.49,.66,.88,1.39,1.14,2.23,.26,.82,.40,1.75,.39,2.79,.05,.80,.06,1.65-.07,2.49-.13,.86-.42,1.70-.97,2.46-.43,.60-1.01,.97-1.65,1.13-.53,.13-1.09,.10-1.64-.07,.29,1.00,.51,2.08,.06,3.08-.08,.18-.33,.27-.51,.18-.43-.22-.86-.43-1.28-.62s-.84-.36-1.27-.51l-.01-.01c-.95-.37-1.73-.73-2.36-1.12-.65-.39-1.15-.80-1.50-1.24l.01,.02c-.44-.49-.72-1.06-.88-1.70-.14-.55-.20-1.14-.22-1.74-.72-.39-1.38-.78-1.94-1.16-.64-.43-1.18-.87-1.61-1.31-.13-.14-.26-.27,.01-.53s.40-.12,.53,.01c.39,.40,.89,.80,1.50,1.21,.60,.40,1.28,.81,2.04,1.21,1.24,.13,2.47,.51,3.70,1.09,1.06,.50,2.11,1.15,3.17,1.92,.13,.07,.19,.16,.27,.20,.08,.06,.16,.13,.25,.19,.51,.22,1.04,.28,1.52,.16,.47-.11,.90-.39,1.22-.84,.48-.66,.72-1.39,.84-2.14,.12-.77,.11-1.57,.06-2.34v-.02c.01-.97-.12-1.83-.35-2.58-.24-.76-.58-1.42-1.02-2.01-.11-.15-.22-.30,.07-.52s.41-.07,.52,.07zm-3.75,10.47c-1.04-.77-2.07-1.41-3.11-1.90-1.05-.49-2.10-.83-3.14-.98,.02,.48,.08,.93,.18,1.35,.13,.52,.35,.99,.71,1.38l.01,.01c.30,.37,.73,.72,1.30,1.07,.60,.36,1.34,.71,2.25,1.06l-.01-.01c.45,.16,.89,.34,1.33,.54,.31,.14,.61,.28,.93,.44,.19-.83-.10-1.79-.37-2.67-.02-.08-.05-.15-.09-.29zm7.76-10.03c-.44,.59-.79,1.25-1.02,2.01-.24,.76-.36,1.61-.35,2.58v.02c-.05,.77-.06,1.58,.06,2.34,.12,.75,.37,1.48,.84,2.14,.32,.45,.75,.72,1.22,.84,.48,.12,1.01,.06,1.52-.16,.08-.06,.17-.13,.25-.19,.06-.04,.13-.12,.27-.20,1.05-.77,2.11-1.43,3.17-1.92,1.23-.58,2.46-.95,3.70-1.09,.75-.40,1.44-.80,2.04-1.21s1.11-.81,1.49-1.21c.13-.13,.26-.27,.53-.01s.14,.39,0,.53c-.43,.44-.97,.88-1.61,1.31-.57,.38-1.22,.77-1.94,1.16-.02,.61-.08,1.19-.22,1.74-.16,.63-.44,1.21-.88,1.70l.01-.02c-.35,.44-.85,.85-1.50,1.24-.63,.38-1.41,.75-2.37,1.12l-.01,.01c-.43,.15-.85,.32-1.27,.51-.43,.19-.85,.40-1.28,.62-.18,.09-.43,0-.51-.18-.45-1.00-.23-2.08,.06-3.08-.55,.18-1.11,.20-1.64,.07-.64-.15-1.22-.53-1.65-1.13-.55-.76-.84-1.60-.97-2.46-.13-.85-.12-1.69-.07-2.49-.01-1.04,.13-1.96,.39-2.79,.26-.84,.65-1.58,1.14-2.23,.11-.15,.22-.30,.52-.07,.30,.22,.19,.37,.07,.52zm9.40,7.15c-1.05,.15-2.09,.49-3.14,.98-1.04,.49-2.07,1.13-3.11,1.90-.04,.13-.06,.21-.08,.29-.27,.88-.56,1.84-.37,2.67,.31-.15,.62-.30,.93-.44,.44-.20,.87-.38,1.33-.54l-.01,.01c.91-.35,1.65-.70,2.25-1.06,.58-.34,1.00-.70,1.31-1.07,0,0,.01-.01,.01-.01,.35-.39,.57-.86,.71-1.38,.11-.42,.16-.87,.19-1.35z"/>
<path fill-rule="evenodd" d="m2034.59,506.02c-1.19,0-2.16,.97-2.16,2.16s.97,2.17,2.16,2.17,2.16-.97,2.16-2.17c0-1.19-.97-2.16-2.16-2.16zm0,.69c-.81,0-1.47,.66-1.47,1.47s.66,1.47,1.47,1.47,1.47-.66,1.47-1.47-.66-1.47-1.47-1.47zm0,.60c-.48,0-.87,.39-.87,.87s.39,.87,.87,.87,.87-.39,.87-.87-.39-.87-.87-.87zm-16.97-1.24c1.19,0,2.17,.97,2.17,2.16s-.97,2.17-2.17,2.17c-1.19,0-2.16-.97-2.16-2.17,0-1.19,.97-2.16,2.16-2.16zm0,.69c.81,0,1.47,.66,1.47,1.47s-.66,1.47-1.47,1.47-1.47-.66-1.47-1.47,.66-1.47,1.47-1.47zm0,.60c.48,0,.87,.39,.87,.87s-.39,.87-.87,.87-.87-.39-.87-.87,.39-.87,.87-.87z"/>
</g>
</g>
<use xlink:href="#lion" transform="matrix(0.99928092,-0.03791625,0.03791625,0.99928092,-59.653264,-19.932203)"/>
<use xlink:href="#lion" transform="matrix(0.99927613,0.03804216,-0.03804216,0.99927613,62.779506,-173.81167)"/>
</g>
<g>
<path fill="#171796" d="m2308.80,400.35-.25,.09-81.00-92.58-106.50,61.04-17.96,215.60c52.12,4.32,103.04,12.93,152.41,25.51l53.29-209.65z"/>
<path fill="#000" d="m2142.06,413.63c3.70-.90,7.35-1.09,10.89,1.08,1.55,.64,2.72,1.46,3.44,2.51,1.64-1.27,3.31-2.46,5.04-3.48,2.43-1.80,4.91-3.39,7.58-4.28,3.82-1.94,7.63-3.09,11.45-3.44,4.04-.69,8.10-.73,12.14-.49,3.37,.20,6.63,1.13,9.74,2.92,2.82,1.40,5.63,2.81,8.45,4.21,2.98,1.66,5.96,3.16,8.94,4.42,3.78,1.49,8.03,1.99,12.56,2.16,2.22,.08,4.40,.08,6.54-.49,1.73-.46,2.81,.64,.90,1.81-14.00,8.59-24.97,.95-34.33-2.47,3.43,2.32,6.45,4.72,9.00,7.17,3.56,3.43,7.54,6.91,14.58,10.12,4.27,1.94,8.92,3.47,14.89,3.52,2.02,.02,4.20-.06,6.56-.45,1.19-.19,1.70-.08,1.72,.54,.02,.42-.09,1.26-.80,1.73-3.61,2.42-7.01,3.06-10.80,3.30-7.22,.46-14.94-1.91-22.00-5.70-5.65-3.04-9.46-6.74-13.96-10.06-4.49-3.31-8.37-5.15-12.54-6.03-4.11-.88-8.56-.78-12.31,.38,1.12,.22,2.07,.75,2.65,1.42,1.93,1.14,4.41,1.64,8.00,2.05,1.87,.22,1.29,1.51-1.59,3.06-1.73,2.23-3.98,3.43-6.97,3.14-4.12,2.73-5.59,1.08-6.97-.71-.17,1.13-.50,2.24-.99,3.31,.18,.58,.20,1.22-.06,1.80,.66,1.02,.98,2.01,.76,3.10,.11,.58,.30,1.14,.92,1.66,.86,.78,1.41,1.68,1.52,2.78,.01,.73,.41,1.33,.99,1.87,.84,.69,1.69,1.30,2.53,2.33,2.49,.90,3.64,2.81,4.05,5.28,1.88,.61,2.66,1.97,3.03,3.59,1.07,.45,2.05,.99,2.61,1.94,3.84,.01,7.59,.01,11.10,.38,3.29,.35,5.97,2.40,8.37,5.06,1.62,.25,3.26,.33,4.94-.05,1.73-.76,3.56-1.34,5.55-1.51,3.29-.28,6.59-.45,9.73,.30,2.13,.51,3.79,1.64,5.15,3.18,1.96,2.23,4.98,1.93,7.56,.83,3.50-1.49,6.41-1.44,9.99,.13,1.53-.59,3.06-.87,4.59-.71,1.31-1.42,2.70-1.77,4.13-1.81,2.33-.08,4.02,.28,3.58,3.27-.12,.81-.60,1.59-1.21,1.87-1.07,2.31-3.11,2.99-5.70,2.77-.28,1.59-.93,2.77-1.97,3.53,1.19,3.67,.05,5.14-2.67,5.09-.57,1.06-1.42,1.72-2.87,1.51-1.06,1.29-2.31,1.95-3.68,2.17,.16,.96,.57,1.41,1.25,2.44,1.85,2.80-.93,3.93-3.47,3.97,.65,1.85,.73,3.70,.50,5.55,2.59,1.57,2.94,3.22,.55,4.85,1.75,3.06,1.07,5.31-2.21,6.95-.05,1.71-.22,3.43-1.36,4.39-.78,.66-1.90,.78-1.16,2.02,1.33,2.20,1.04,4.98-.93,5.06-.42-.04-.80,.02-.83,.69,0,.23-.20,.46-.59,.69-2.36,1.27-4.57,2.72-6.60,4.39-.30,.20-.60,.34-.90,.07-1.48,3.22-4.24,6.49-7.29,9.78-.47,2.42-1.84,4.06-4.11,4.91-.16,.75-.64,1.19-1.35,1.38,1.27,1.41,1.75,2.77,.52,4.11-1.51,1.65-3.50,3.26-5.49,3.77-4.23,1.08-6.88,.88-8.58-.74-1.50-1.43-.91-2.51,.04-2.96-2.61,.21-3.14-1.17-3.07-3.01,.15-.92,.46-.80,1.38-.77,1.42,.04,2.70-.73,4.04-1.17,.52-.88,1.20-1.64,2.04-2.28,.47-2.96,2.34-4.60,4.88-5.57,2.05-.78,4.01-2.76,5.91-5.32,1.17-2.02,2.35-4.03,3.52-6.05-.82-1.07-1.04-2.14-1.07-3.21-1.08-.60-1.83-1.34-2.35-2.18-1.84-.13-2.60-.96-2.87-2.11-.42,.01-.88-.03-1.38-.18-.90,.58-1.81,1.09-2.94,1.04-1.49,1.53-3.03,2.78-4.60,3.84-.55,1.52-1.64,2.13-2.97,2.32-3.78,.45-6.04,5.16-8.12,7.08-.84,.62-1.36,1.72-1.73,3.04-.18,2.48-.61,4.42-1.97,4.46-1.22-.05-1.41-.18-1.45-.31-.53-.05-1.06-.05-1.59,.07,1.02,1.12,1.18,2.53,.24,3.77-.94,1.22-2.29,1.60-3.59,1.69-2.69,.18-4.87-.06-6.89-.88-1.93-.79-2.16-1.94-2.10-3.06-1.39-.66-1.67-1.32-1.52-1.97,.19-.84,.96-1.27,1.93-1.00,.84-.40,1.68-.67,2.52-.83,2.44-2.63,4.95-4.89,7.71-5.94,.81-.98,1.74-1.86,2.87-2.59,.32-2.36,1.87-4.22,3.77-5.95,.17-.85,.45-1.71,.93-2.56-.11-.51,.03-.75,.04-1.23-.77-1.43-1.23-3.15-.66-4.58-.23-.69-.30-1.59-.21-2.28-4.54,2.70-5.94,1.78-6.46-.41-1.66,1.39-3.21,2.04-4.32,.04-1.61,.48-3.23,1.02-4.84,.38-1.05,.41-2.11,.78-3.32,.86-.49,.97-1.15,1.94-2.04,2.91-.05,2.04-.76,4.08-2.07,6.12-.76,2.18-1.70,4.35-2.94,6.53,.02,.70-.08,1.40-.45,2.11,.35,2.51-.49,3.73-1.87,4.35-.37,1.01-.92,2.03-1.76,3.04-.04,.33-.07,.67-.11,1.00,.55,1.48,.64,2.95-.86,4.43-1.21,.76-2.50,1.56-3.78,2.19-1.51,.74-2.91,.39-4.18-.07-2.23-.80-2.06-1.58-1.77-2.34-.70,.28-1.50,.31-2.20-.03-.54-.34-.88-.69-1.42-1.04-.48-.87-.65-1.66,.52-2.28,1.47-.65,2.47-1.13,3.63-2.32,.40-.90,.91-1.58,1.63-1.76,.70-1.64,1.56-2.75,2.73-3.05,.86-2.03,1.78-4.27,2.87-6.21,.38-.59,.66-1.20,.48-1.87-.02-.55,.02-1.07,.48-1.38,.26-.22,.72-.42,.14-.73-.53-1.81-.20-3.54,.69-4.87,1.18-1.78,2.50-6.08,1.25-8.19-.23-1.18-.46-2.53-.31-3.64-.43-.02-.75,.04-1.18-.26-.96-.59-1.76-.03-2.49,1.04-.53,1.34-1.06,2.52-1.59,2.52-.50,3.46-2.20,6.15-3.97,6.84-.41,1.59-.67,3.18-.45,4.77,.18,1.73,0,2.91-.80,3.11-.88,.22-1.70,.73-2.21,2.14-.14,.39-.30,.86-.31,1.42,1.22,1.26,.85,2.83-.32,3.99-2.64,2.60-5.92,2.22-9.39,1.20-2.51-.99-3.12-2.04-2.87-3.11-3.56-.30-2.85-3.03,.10-3.85,3.17-.89,5.74-2.92,7.85-5.82,.19-3.44,.98-5.78,2.83-6.15,.18-2.11,.84-4.01,1.73-5.81,.93-1.63,1.50-3.42,1.17-5.60-1.97-1.23-2.05-2.50-.24-3.80,.60-.35,.53-.71-.21-1.07-1.20-.12-1.05-1.27-.97-2.35-.05-.56-.34-.85-.87-.86-2.66-.39-2.00-1.48-.86-2.66,.48-.54,.80-1.34,.30-1.66-.41-.26-.69-1.17-.78-1.97-1.63-1.23-.93-2.49,0-3.70-.92-.78-1.35-1.92-1.48-3.25-3.03-.13-4.16-1.67-2.52-3.91,.69-.95,1.58-1.86,2.66-2.73,.70-1.13,1.37-2.26,1.04-3.39-.87-2.21,1.91-3.88,4.29-5.60-.33-.58-.50-1.15-.52-1.73-1.34-1.29-1.00-2.49,.48-3.63-.33-.59-.49-1.18-.55-1.76-3.33,.66-3.31-1.33-1.76-4.53-1.93-1.11-1.39-3.08,2.11-6.08,.05-.69,.18-1.22,.38-1.59-1.66,.04-3.03,.53-4.22,1.28-1.33,.87-2.65,.76-3.98,.21-.41-.66-1.04-1.22-1.76-1.73-.91-.80-1.12-1.70-.93-2.66-3.92,.22-4.67-2.68-2.32-4.39,1.31-1.04,2.27-2.13,2.63-3.32,1.06-2.69,3.31-4.52,5.50-6.40,0-.77,.17-1.54,.41-2.32-.97-.65-1.99-1.12-3.11-1.21-.40-1.00-1.15-2.08-2.42-2.69-.73-.44-.97-.85-.52-1.84-2.08-1.86-1.56-2.99-1.03-4.06z"/>
<g fill="#f7db17">
<path d="m2213.18,514.61c-.23,.02-.47,.04-.74,.03-1.01,1.03-2.22,2.06-3.34,2.94-.97-1.12-2.41,.11-1.00,.79-.24,.17-.48,.34-.72,.50-.46,1.22-.88,1.74-2.24,1.95-.21,.03-.42,.07-.63,.12-.01-.52,.01-1.02,.06-1.51,.06-.61,.16-1.20,.29-1.78,.02-.11,.05-.21-.16-.26s-.24,.06-.26,.17c-.13,.60-.24,1.21-.31,1.83-.06,.55-.08,1.11-.06,1.67-3.43,1.10-5.41,4.67-7.75,7.21-1.01,.87-1.52,2.07-1.89,3.33-.20,.67-.27,3.74-.96,3.79-.33,.01-.68,0-1.05,0-.37-.56-.87-.57-1.50-.04-1.43-.03-2.95-.04-4.22,.16-.87,.94,1.52,.59,2.79,1.37,.58,.35,.83,1.04,.60,2.00-1.17,2.79-7.70,1.89-9.87,.74-1.01-.53-1.05-1.14-1.01-2.01,.45,0,.91-.03,1.37-.10,.78-.11,1.55-.34,2.31-.77,.21-.12,.43-.24,.19-.67s-.46-.31-.67-.19c-.64,.37-1.30,.56-1.96,.65-.68,.10-1.38,.10-2.05,.07-.06,0-.12-.01-.17,0-.38-.22-.67-.48-.51-.71,.16-.22,.79,.02,.91,.06,1.01-.47,1.89-.77,2.98-.98,2.30-2.46,4.64-4.77,7.81-6.04,.95-1.14,1.98-2.04,3.22-2.86,.44-2.74,1.77-4.20,3.76-6.02,.24-1.13,.52-1.94,1.08-2.93-.12-.63-.03-1.03,0-1.67-.76-1.44-1.21-2.69-.61-4.30-.37-1.17-.32-1.96-.18-3.04,.04-.28,.03-.48-.01-.61,.62-.49,1.25-.95,1.87-1.37,.57-.38,1.14-.73,1.71-1.05-.09,1.08-.05,2.21,.16,3.39,0,0-.01,.01-.01,.01-.34,.37-.63,.73-.83,1.11-.21,.39-.33,.78-.31,1.17,0,.11,0,.22,.22,.21,.22,0,.22-.11,.21-.22-.01-.31,.08-.63,.26-.95,.18-.33,.45-.67,.77-1.01,.03-.03,.06-.07,.08-.11,1.05-.03,2.08-.59,3.11-1.42,.93-.76,1.86-1.74,2.78-2.77-.01,1.50-.02,3.00-.04,4.50-.90,.80-1.67,1.78-2.27,2.97-.05,.10-.10,.19,.09,.29,.20,.10,.25,0,.29-.10,.55-1.09,1.25-1.99,2.06-2.74h.04c.22,0,.22-.11,.22-.22v-.01c.14-.12,.29-.24,.44-.35,1.02-.79,2.18-1.39,3.43-1.87-.19,1.32-.28,2.61-.05,3.85,.25,1.36,.89,2.64,2.19,3.76,.02,.02,.05,.03,.08,.04z"/>
<path d="m2147.86,476.57c.17-.31,.60-.71,.74-.68,.03-.01,.05-.01,.08-.02,.47-.88,.96-1.70,1.47-2.44,.66-.96,1.36-1.81,2.10-2.53,.08-.08,.16-.15,.31,0,.15,.16,.07,.23,0,.31-.72,.70-1.40,1.52-2.05,2.46-.50,.73-.98,1.53-1.44,2.40,.15,.20,.22,.51,.14,.73,.15,1.37,.33,2.14,.94,2.93,.07-.06,.14-.11,.21-.14,.25-.61,.59-1.15,1.01-1.63,.52-.58,1.15-1.07,1.91-1.48,.52-.43,.94-.87,1.28-1.33,.34-.45,.61-.91,.80-1.38,.04-.10,.08-.20,.29-.12,.20,.08,.16,.19,.12,.29-.21,.51-.49,1.00-.85,1.48-.37,.48-.82,.95-1.38,1.41,0,0-.03,.02-.04,.02-.71,.39-1.32,.85-1.80,1.39-.37,.41-.66,.87-.89,1.38,.32,.23,.46,.86,.16,1.26-.91,1.31-1.99,2.08-.29,3.20-.06,.88,.22,1.55,.80,2.16,.39,.41,.35,1.84-.61,2.87-.90,.91-.21,.67,.72,.78,.07,.02,.14,.05,.21,.07v-.01c.34-.66,.74-1.25,1.18-1.80,.43-.54,.90-1.05,1.38-1.53,.67-.66,1.20-1.38,1.58-2.11,.37-.71,.59-1.44,.63-2.14,.01-.11,.01-.22,.24-.20,.22,.01,.21,.12,.20,.23-.05,.76-.28,1.54-.68,2.32-.40,.77-.96,1.52-1.66,2.21-.47,.47-.92,.95-1.34,1.49-.42,.53-.80,1.10-1.13,1.73,1.12,.68,.76,1.90,.93,3.02,.22,.03,.41,.08,.58,.16,.01-.02,.02-.04,.04-.06,.22-.34,.44-.69,.66-1.04l1.04-1.65c.06-.09,.12-.19,.30-.07,.19,.12,.13,.21,.07,.30l-1.04,1.65c-.22,.35-.44,.69-.66,1.04-.01,.02-.02,.04-.03,.05,.69,.56,.74,1.58-.11,2.36-1.67,1.26-1.20,1.65,.36,2.65,.20,1.47,.21,2.65-.11,3.90,.01,.03,.01,.07,.02,.11,.04,.41,.07,.83,.10,1.24l.10,1.25c.01,.11,.02,.22-.20,.24s-.23-.09-.24-.20l-.10-1.25c-.01-.11-.02-.21-.02-.32-.08,.19-.16,.39-.26,.60-1.12,2.45-2.28,4.45-2.53,7.20-2.69,.64-2.29,3.29-2.44,5.63-2.12,2.86-4.58,5.15-7.99,6.29-.64,.21-2.19,.59-2.34,1.40-.02,.29,1.04,.92,1.72,.55,1.88-1.80,2.82-.80,.66,1.04-.17,.35-.03,.74,.34,1.07,1.95,1.75,6.78,2.32,8.98,.93,1.63-1.02,2.48-2.14,1.06-3.69,.09-2.20,.95-4.35,3.27-4.97,.27-.50,.19-1.43,.07-1.94-.22-1.91,.08-3.61,.55-5.45,.08-.23,.25-.42,.63-.52,.88-.18,2.57-2.73,3.10-5.18,.13-.53,.21-1.08,.31-1.63,.14-.85,.47-1.00,.90-.50,.41-.55,.40-.88,.65-1.51,.90-1.31,2.20-2.36,3.72-1.62-.39-1.07-.66-2.28-.74-3.51-.11-1.46,.03-2.97,.48-4.35,.06-.21,.13-.41,.46-.36,.44-1.04,.87-2.07,1.31-3.11s.88-2.09,1.32-3.13c.04-.10,.08-.20,.28-.12s.16,.19,.12,.29c-.44,1.04-.88,2.08-1.32,3.13-.44,1.04-.87,2.07-1.31,3.10,.19,.14,.13,.32,.07,.50-.40,1.25-.53,2.63-.43,3.98,.10,1.46,.46,2.87,1.00,4.02,.05,.11,.11,.22,.09,.33,.72,.42,.71,.52,.68,1.48-.02,.75,.08,1.49,.26,2.39,1.43,2.64-.06,7.06-1.45,9.27-.67,1.07-.85,2.29-.57,3.52,.86,.83,.30,1.69-.46,2.27-.06,.20,0,.43,.01,.63,.08,.86-.23,1.58-.68,2.29-1.17,2.11-2.07,4.36-3.01,6.57-1.70,.47-2.05,1.46-2.73,3.05-.99,.28-1.09,.57-1.51,1.48-1.14,1.15-2.23,1.84-3.69,2.50-1.21,.55-.04,1.08,.81,1.66,.77,.57,1.78-.67,2.41-1.61,.69-1.04,1.39-.73,.94,.08-.50,.89-.86,2.17-.91,2.84-.26,.72,2.48,1.27,2.95,1.29,1.67,.08,3.77-1.55,5.08-2.38,1.09-1.11,.92-2.08,.44-3.43l.01-.09c-.70,.02-1.36-.06-2.01-.20-.79-.18-1.57-.45-2.36-.78-.10-.04-.20-.08-.12-.29,.08-.20,.19-.16,.29-.12,.78,.32,1.53,.59,2.29,.75,.63,.14,1.28,.21,1.97,.19l.11-1.05c.87-1.07,1.47-2.12,1.94-3.40,1.85-.87,1.86-1.77,1.61-3.75,.41-.80,.50-1.27,.47-2.18,1.22-2.17,2.22-4.39,3.05-6.74,1.46-1.94,2.16-3.77,1.99-6.08,.13-.90,.46-1.41,1.12-1.38,.48-.67,.91-1.36,1.30-2.13,.08,.01,.16,.02,.24,.02-.02-.05-.01-.11,0-.16,.12-.53,.26-1.00,.44-1.39,.17-.39,.37-.70,.60-.95,.27-.66,.37-1.30,.30-1.92-.07-.64-.29-1.26-.65-1.87-.22-.25-.42-.51-.49-.78-.09-.31-.03-.62,.28-.93,.08-.08,.16-.15,.31,0,.15,.16,.08,.24,0,.31-.18,.17-.21,.33-.16,.49,.06,.20,.22,.41,.41,.63,0,0,.02,.04,.02,.04,.39,.67,.65,1.36,.72,2.07s-.03,1.44-.35,2.17c0,.01-.04,.06-.04,.07-.21,.22-.39,.50-.55,.85-.16,.37-.30,.80-.41,1.30-.01,.03-.01,.06-.02,.08,1.03,0,1.94-.32,2.93-.81,.02-.02,.04-.04,.06-.06,.50-.40,1.03-1.01,1.47-1.81,.37-.67,.67-1.49,.84-2.43,.02-.11,.04-.21,.26-.18,.21,.04,.19,.15,.18,.25-.18,1.00-.50,1.85-.89,2.57-.34,.63-.74,1.14-1.14,1.54,1.60,.48,2.99,.01,4.51-.46-.22-2.14-.19-3.77,.04-5.05,.25-1.39,.72-2.37,1.31-3.11,.07-.09,.13-.17,.31-.04,.17,.14,.11,.22,.04,.31-.55,.69-.99,1.61-1.22,2.92-.22,1.22-.26,2.78-.05,4.84,.02-.01,.05-.01,.08-.02,.64,1.09,.98,1.88,2.29,1.03,.48-.32,.98-.64,1.38-1.06,.15-.16,.10-.25,.22-.38,1.25-1.33,2.51-2.57,3.76-3.67,1.26-1.11,2.52-2.06,3.78-2.83,.09-.06,.19-.12,.30,.07s.02,.24-.07,.30c-1.24,.75-2.48,1.70-3.72,2.78-1.07,.94-2.14,1.98-3.21,3.10,.06,.19,.09,.52,.12,1.02,.11,1.48,.38,2.37,2.49,1.56,1.18-.45,1.30-.50,2.39-1.15,.53-.32,.98-.59,1.29-.66,.69-.54,1.37-1.05,2.06-1.51,.67-.45,1.35-.86,2.02-1.22,.11-.80,.29-1.58,.55-2.33,.65-1.92,1.74-3.70,3.11-5.38,.01-.01,.06-.05,.07-.06,1.14-.62,2.07-1.35,2.81-2.18,.75-.83,1.31-1.76,1.73-2.77,.04-.10,.08-.20,.29-.12,.20,.08,.16,.19,.12,.29-.44,1.05-1.03,2.02-1.80,2.89-.77,.86-1.72,1.62-2.90,2.26-1.33,1.64-2.39,3.36-3.01,5.21-.22,.65-.39,1.31-.49,2.00,.04,.01,.08,.05,.12,.13,.10,.20,0,.25-.09,.29-.03,.01-.06,.03-.09,.05-.13,1.08-.10,2.22,.10,3.40,.93-.03,1.87-.55,2.82-1.32,1.01-.82,2.04-1.95,3.06-3.10,.01-.03,.01-.05,.04-.07,.25-.82,.57-1.54,.99-2.12,.45-.62,1.00-1.09,1.68-1.38,.10-.04,.20-.09,.29,.12,.08,.20-.01,.24-.12,.29-.60,.26-1.10,.68-1.50,1.23-.40,.56-.71,1.26-.95,2.06-.01,1.56-.03,3.12-.04,4.68,.05-.04,.11-.08,.16-.13,1.15-.89,2.47-1.55,3.90-2.07,.15-.06,.32,.08,.29,.24-.22,1.40-.34,2.79-.11,4.07,.22,1.20,.76,2.32,1.84,3.32,.41-.74,.89-1.40,1.41-2.00,.18-.21,.37-.41,.56-.60,.01-.02,.02-.04,.05-.05,.41-.41,.83-.79,1.27-1.15,.32-.29,.64-.59,.95-.89,.32-.29,.64-.59,.96-.89,.08-.08,.16-.15,.31,.01s.07,.24-.01,.31c-.32,.30-.64,.59-.96,.89-.32,.29-.64,.59-.96,.89,0,0-.01,.01-.01,.01-.41,.33-.81,.68-1.18,1.06,.01,.41,.03,.81,.05,1.22,.01,.22,.01,.44,.02,.66,.92,.25,1.47,.26,2.41,.24,.31,1.85,.47,2.14,2.08,2.18-.02-.66-.01-1.30,.06-1.93,.08-.72,.23-1.42,.48-2.08,.04-.10,.08-.20,.28-.13,.21,.08,.17,.18,.13,.28-.24,.62-.38,1.28-.46,1.97-.07,.61-.08,1.24-.06,1.89h.13c.64,1.32,1.40,1.97,2.76,2.56,.38-.60,.66-1.20,.84-1.80,.20-.67,.28-1.34,.24-2.01-.01-.11-.01-.22,.20-.23,.22-.01,.23,.09,.24,.20,.05,.72-.04,1.44-.26,2.16s-.57,1.43-1.05,2.14c-.04,.06-.08,.12-.15,.12,.06,.77,.19,1.34,.46,1.92,.20-.43,.41-.86,.65-1.26,.33-.58,.71-1.10,1.17-1.56,.08-.08,.15-.15,.31,0,.15,.15,.08,.23,0,.31-.43,.42-.78,.93-1.10,1.47-.28,.48-.53,1.00-.77,1.53,.15,.26,.34,.52,.56,.82-2.56,4.39-5.30,10.47-10.35,12.47-2.61,1.03-3.75,2.36-4.27,5.15-.98,.76-1.68,1.53-2.32,2.59-1.70,.57-3.22,1.42-5.06,1.34,0,1.19,.39,1.71,1.58,1.72,2.27-1.14,2.78-1.35,2.98-1.19,.28,.24-.32,1.87-2.20,3.19-.29,.18-.28,.29-.11,.59,1.59,2.49,5.76,1.60,8.00,1.01,1.60-.42,4.49-2.32,5.29-3.92,.31-.74-.39-1.69-1.09-2.47-3.20,.49-2.59-2.58,.16-1.30,.93-.28,1.05-.29,1.31-1.32,2.45-.95,3.47-1.98,4.03-4.61,2.47-2.66,4.95-5.40,6.73-8.59,.49-.60,.78-1.66,.64-2.21,.44-.52,.68-1.18,.84-1.78,.16-.64,.26-1.27,.24-1.91,0-.11-.01-.22,.21-.23s.22,.10,.23,.21c.02,.68-.08,1.35-.25,2.03-.14,.52-.32,1.04-.51,1.56,.16,.40,.24,.67,.59,.57,2.14-1.72,4.30-2.93,6.61-4.36,.16-.98,.79-1.46,1.76-1.50,.39,.01,.53-.11,.67-.47,.54-1.35-.14-2.28-.79-3.40-.60-1.67,.47-2.07,1.54-2.87,1.12-.83,1.04-3.03,1.08-4.30h.01c-.04-.21-.08-.43-.13-.65-.09-.44-.22-.88-.38-1.35-.04-.10-.07-.21,.13-.28,.21-.07,.24,.03,.28,.14,.17,.49,.30,.95,.40,1.40,.04,.18,.07,.36,.11,.53,1.07-.55,2.19-1.19,2.61-2.38,.37-1.32-.35-2.57-.99-3.69-.27,.13-.55,.26-.84,.38-.52,.23-1.08,.47-1.67,.70-.10,.04-.20,.08-.28-.12s.02-.25,.12-.28c.57-.23,1.12-.46,1.65-.70,.44-.19,.86-.39,1.25-.58,.48-.32,.97-.66,1.32-1.11,.77-1.11-1.30-2.11-2.02-2.56,0-.03,.01-.06,.01-.09-1.04-.95-2.07-1.91-3.11-2.86-.08-.07-.16-.15-.01-.31s.23-.09,.31-.01c.96,.88,1.92,1.76,2.88,2.64,.16-1.63,.18-3.19-.33-4.81-.16-.52-.35-1.03-.53-1.54-.04,0-.08-.02-.12-.05-.88-.45-1.50-1.00-1.90-1.63-.41-.63-.61-1.33-.67-2.09-.01-.11-.01-.22,.21-.24,.22-.01,.22,.10,.24,.21,.05,.68,.22,1.32,.59,1.88,.37,.57,.93,1.07,1.74,1.48,.87,.45,2.70,.22,3.76-.29,1.47-.83-.45-2.51-.90-3.50-.32-.71-.40-1.44-.54-2.20,.13-.02,.26-.05,.40-.07-.19-.24-.39-.45-.59-.62-.25-.22-.52-.38-.79-.48-.10-.04-.21-.07-.13-.28,.07-.21,.18-.17,.28-.13,.33,.12,.64,.31,.93,.56,.28,.24,.54,.53,.79,.87,.14-.02,.29-.05,.43-.08,1.45-.29,2.25-1.10,3.13-2.14-.48-.58-1.01-1.12-1.58-1.63-.59-.53-1.19-1.03-1.80-1.52-.08-.07-.17-.14-.03-.31s.22-.10,.31-.03c.62,.50,1.24,1.01,1.82,1.54,.59,.54,1.15,1.11,1.66,1.73,.05,.06,.10,.12,.06,.20,1.33,.12,1.55-.15,2.22-1.34-.17-.61-.45-1.18-.80-1.73-.37-.57-.82-1.11-1.33-1.63-.08-.08-.15-.16,0-.31,.16-.15,.24-.07,.31,0,.52,.54,1.00,1.11,1.38,1.70,.38,.58,.67,1.18,.85,1.83,.62,.01,1.29,.04,1.82-.28,1.16-.69,.18-3.17-.12-4.13,.02-.01,.03-.02,.05-.04-.15-.10-.31-.20-.46-.29-.27-.17-.55-.34-.82-.52-.09-.06-.18-.12-.07-.30,.12-.19,.21-.13,.30-.07,.27,.17,.55,.35,.82,.52,.20,.13,.40,.25,.60,.38,.09-.07,.18-.14,.27-.21,.85-.68,1.15-1.58,1.41-2.52,.40-1.44,.48-.80,2.16-1.05,1.81-.28,2.79-.48,3.86-2.60,.56-.28,.85-.52,.95-1.21,.18-1.25,.08-1.89-1.35-2.00-2.00-.16-3.22,.24-4.57,1.56,.18,.27,.36,.55,.54,.82,.06,.09,.12,.18-.06,.31-.18,.12-.24,.03-.30-.06-.17-.26-.34-.52-.51-.78-1.82-.18-3.28,.11-4.98,.75-.17-.07-.34-.14-.51-.21,.36,.48,.64,.94,.85,1.39,.29,.64,.44,1.25,.46,1.83,0,.11,.01,.22-.21,.23s-.22-.10-.23-.21c-.02-.53-.15-1.08-.42-1.67s-.68-1.21-1.26-1.87l-.01-.01c-1.42-.51-2.72-.77-4.05-.74,.22,.22,.45,.44,.67,.65,.29,.28,.58,.56,.86,.84,.08,.08,.16,.15,0,.31-.15,.16-.23,.08-.31,0-.29-.28-.58-.56-.86-.84-.29-.28-.58-.56-.86-.84-.03-.03-.06-.06-.08-.09-1.13,.09-2.30,.39-3.59,.93-.81,.34-1.64,.60-2.45,.75,.60,.58,1.11,1.23,1.51,1.97,.42,.76,.74,1.60,.95,2.53,.02,.11,.05,.21-.16,.26s-.24-.06-.26-.16c-.20-.89-.51-1.70-.91-2.42s-.90-1.36-1.49-1.92c-.06-.05-.11-.11-.09-.19-.75,.11-1.50,.12-2.22,.01l.89,1.47c.05,.10,.09,.20-.10,.29-.20,.09-.25,0-.29-.10l-.82-1.72c-.69-.14-1.37-.40-2.00-.79,.21,.79,.37,1.64,.49,2.54,.16,1.19,.26,2.46,.29,3.80,0,.11,.01,.22-.21,.22s-.22-.11-.22-.21c-.03-1.33-.12-2.59-.28-3.75-.15-1.07-.35-2.08-.63-3.00-.31-.24-.61-.52-.90-.84-.72-.79-1.52-1.40-2.40-1.87,.05,.37,.05,.73,0,1.09-.09,.66-.36,1.33-.88,1.98-.07,.09-.13,.17-.31,.04-.17-.14-.11-.22-.04-.31,.47-.59,.71-1.18,.79-1.77,.06-.42,.04-.85-.05-1.27-1.37-.63-2.88-.94-4.44-1.07,.42,.55,.82,1.10,1.18,1.67,.42,.66,.80,1.33,1.14,2.01,.62,.51,.95,1.13,1.14,1.81,.18,.67,.22,1.39,.25,2.12,0,.11,.01,.22-.21,.23s-.22-.10-.23-.21c-.02-.70-.06-1.39-.23-2.02-.17-.61-.47-1.17-1.02-1.61-.01-.01-.06-.06-.06-.07-.34-.68-.72-1.35-1.13-2.01-.42-.66-.88-1.30-1.39-1.92l-.02-.02c-.53-.03-1.06-.04-1.59-.03,.09,.12,.18,.24,.26,.37,.19,.31,.32,.65,.36,1.04,.01,.11,.02,.22-.20,.24s-.23-.09-.24-.20c-.04-.32-.14-.60-.30-.86-.13-.21-.28-.40-.47-.58-1.10,.03-2.19,.12-3.24,.21,1.10,1.41,1.98,2.87,2.66,4.37,.76,1.67,1.27,3.39,1.56,5.17,.02,.11,.04,.22-.18,.25-.21,.04-.23-.07-.25-.18-.29-1.74-.79-3.43-1.53-5.06-.71-1.55-1.63-3.06-2.79-4.51-.05,0-.11,.01-.16,.01-.85,.08-1.71,.26-2.53,.49,.37,.23,.69,.46,.97,.69,.38,.31,.68,.62,.94,.93,.07,.09,.14,.17-.03,.31s-.24,.06-.31-.03c-.24-.29-.53-.59-.88-.88-.35-.28-.76-.57-1.26-.86-.44,.14-.87,.30-1.30,.47-.24,.09-.47,.18-.71,.25,.74,.53,1.45,1.11,2.13,1.76,.82,.79,1.59,1.68,2.28,2.71,.06,.09,.12,.18-.06,.30s-.24,.03-.31-.06c-.67-1.00-1.41-1.87-2.21-2.64-.75-.72-1.55-1.35-2.38-1.93-.90,.20-1.81,.25-2.72,.22,.56,1.11,1.05,2.23,1.42,3.36,.40,1.22,.68,2.45,.77,3.70,.01,.11,.02,.22-.20,.24s-.23-.09-.24-.20c-.09-1.22-.36-2.41-.75-3.60-.40-1.19-.92-2.36-1.51-3.52-.55-.04-1.11-.11-1.67-.18,.32,1.02,.60,2.07,.84,3.14,.28,1.26,.51,2.55,.68,3.86,.01,.11,.02,.22-.19,.25-.22,.03-.23-.08-.25-.19-.16-1.30-.39-2.58-.67-3.82-.26-1.16-.57-2.30-.93-3.42-1.58-1.71-3.33-3.38-5.47-4.27,.44,.56,.79,1.14,1.04,1.75,.39,.94,.57,1.94,.54,2.99,0,.11-.01,.22-.22,.21-.22,0-.22-.12-.21-.22,.02-.99-.14-1.93-.51-2.82-.33-.79-.81-1.53-1.48-2.22-.48-.14-.99-.25-1.51-.30-1.40-.14-2.81-.23-4.22-.28,1.08,.98,1.93,1.88,1.85,2.97-.01,.11-.02,.22-.24,.20s-.21-.13-.20-.24c.07-1.01-.93-1.92-2.10-2.96-.84-.03-1.69-.04-2.53-.05,.46,.47,.86,.94,1.18,1.41,.44,.64,.75,1.28,.90,1.92v.03c.09,.99,.33,1.86,.77,2.58,.43,.71,1.05,1.26,1.90,1.65,.10,.05,.20,.09,.11,.29s-.19,.16-.29,.11c-.93-.42-1.61-1.04-2.09-1.82-.47-.77-.73-1.69-.83-2.74-.14-.58-.42-1.17-.83-1.76-.38-.55-.87-1.11-1.45-1.67-.94,0-1.87-.01-2.81-.01,.39,1.11,.66,2.25,.85,3.41,.22,1.42,.32,2.87,.35,4.34,0,.11,0,.22-.22,.22s-.22-.11-.22-.21c-.02-1.45-.12-2.89-.34-4.28-.19-1.19-.47-2.35-.88-3.48h-.26c-.61-1.00-1.18-1.44-2.06-1.85-.01,.10-.02,.20-.05,.29-.07,.30-.19,.60-.40,.90-.06,.09-.13,.18-.31,.06s-.12-.21-.06-.30c.17-.25,.28-.50,.33-.74,.03-.13,.05-.26,.05-.40-.14-.06-.29-.12-.45-.19-.45-1.88-.87-2.66-2.37-3.30-.01,.52-.04,1.06-.14,1.61-.12,.68-.34,1.37-.75,2.03-.06,.09-.12,.19-.30,.07-.19-.12-.13-.21-.07-.30,.38-.61,.58-1.24,.69-1.87,.10-.57,.13-1.15,.13-1.71-.08-.03-.17-.06-.26-.09-.40-2.63-.88-4.10-3.61-5.14,.03,.34,.04,.69,.02,1.04-.03,.59-.14,1.19-.38,1.81-.04,.10-.08,.21-.28,.13s-.16-.18-.13-.28c.22-.57,.32-1.13,.35-1.68,.03-.52-.01-1.04-.08-1.55-.58-.66-1.41-1.29-2.12-1.99,.02,.97-.11,1.93-.38,2.90-.33,1.17-.87,2.35-1.63,3.52-.06,.09-.12,.19-.30,.07-.19-.12-.13-.21-.07-.30,.73-1.13,1.26-2.27,1.58-3.40,.31-1.08,.42-2.17,.34-3.26-.31-.34-.57-.71-.75-1.10-.02,.05-.04,.10-.06,.14-.11,.24-.21,.48-.32,.72-.05,.10-.09,.20-.29,.12-.20-.09-.16-.19-.12-.29,.11-.24,.21-.48,.32-.72,.08-.19,.17-.39,.25-.58-.02-.12-.04-.24-.05-.37-.09-.84-.54-1.49-1.15-2.04l-.01-.01c-.08,.26-.18,.53-.30,.79-.19,.41-.44,.81-.76,1.22-.07,.09-.13,.17-.31,.04-.17-.14-.10-.22-.04-.31,.30-.38,.53-.76,.71-1.13,.15-.32,.26-.64,.34-.97-.28-.33-.48-.67-.64-1.04-.10,.24-.24,.48-.42,.72-.21,.28-.48,.55-.82,.83-.08,.07-.17,.14-.31-.03s-.05-.24,.03-.31c.31-.25,.55-.50,.74-.75s.32-.49,.41-.74c.14-.39,.19-.14,.06-.77,.23-1.24-.23-1.98-.89-3.01,.01-.03,.02-.05,.04-.08-.39,.01-.84,.14-1.33,.35-.59,.26-1.24,.65-1.92,1.12-.09,.06-.18,.12-.30-.06-.13-.18-.04-.24,.06-.30,.71-.48,1.38-.88,1.99-1.15,.62-.27,1.19-.42,1.68-.39,.12-.33,.13-.58,.05-.96-2.00,.74-3.58,1.09-4.85,1.17-1.33,.08-2.35-.13-3.20-.49-.10-.05-.20-.09-.11-.29,.08-.20,.19-.16,.29-.12,.79,.34,1.74,.54,3.00,.46,1.25-.08,2.79-.42,4.77-1.16-.01-.02-.01-.04-.02-.06,.36-.80,.65-1.58,.85-2.36-.71,.19-1.41,.18-2.11,.16h-.14c-.11,0-.22-.01-.22-.22,0-.22,.12-.22,.22-.22h.14c.74,.01,1.48,.03,2.21-.21,.05-.26,.09-.52,.13-.78,.11-.87,1.13-1.08,1.85-.30,.60,.64,1.15,1.32,1.74,1.60,1.20,.57,2.55,.06,3.52-.72-.29-.09-.59-.19-.89-.29-.11-.03-.21-.07-.14-.27,.07-.21,.17-.18,.27-.14,.38,.12,.76,.24,1.14,.37,.09-.09,.18-.18,.26-.27,2.48,.21,4.09-.31,5.68-1.91-1.41,.03-2.67-.01-3.76-.13-1.20-.14-2.19-.38-2.92-.74-.10-.05-.20-.10-.10-.29,.10-.20,.20-.15,.29-.10,.68,.34,1.63,.57,2.78,.70,1.17,.13,2.55,.17,4.12,.12h.02c.14-.16,.28-.33,.43-.51,.68-.28,1.36-.59,1.86-1.15-2.89-.31-5.64-.88-8.23-2.23-.67-.75-1.73-1.17-2.86-1.46-2.10-.26-3.96,.26-5.67,1.15-.45-.42-.80-.80-1.24-1.21-.66-.08-1.28-.43-1.94-.51-.88-.10-1.80,.07-2.68-.03-.11-.01-.22-.02-.19-.24,.02-.22,.13-.21,.24-.19,.88,.10,1.80-.07,2.68,.03,.85,.10,1.66,.47,2.51,.57,2.84-1.07,5.19-1.66,7.22-1.57,2.37-.69,4.83-.98,7.29-.92-.03-.02-.06-.05-.09-.08-.29-.29-.15-.44,0-.58,1.33-1.35,1.64-2.59,1.21-3.71-.44-1.16-1.64-2.25-3.31-3.25-1.78,.20-3.49-.28-5.38-.07-1.18,.13-2.34,.39-3.48,.77,.95,.34,1.78,.90,2.46,1.70,.84,.99,1.44,2.34,1.76,4.04,.04,.20,.07,.41-.33,.48-.40,.08-.44-.13-.48-.33-.29-1.55-.83-2.77-1.58-3.66-.79-1.13-2.60-1.57-3.17-1.80-1.89,.19-3.75,.40-5.37,.82-1.22,.31-2.29,.74-3.11,1.38,1.22-.26,2.49-.21,3.59,.34,1.05,.52,1.94,1.50,2.50,3.09,.07,.19,.13,.39-.26,.52s-.46-.06-.52-.26c-.47-1.37-1.21-2.19-2.08-2.62-1.73-.86-5.30-.11-6.81,1.01-.88,.66-1.76,1.51-2.63,2.50-.16,.19-.33,.37-.70,.05-.37-.33-.21-.51-.04-.69,.91-1.03,1.83-1.94,2.78-2.64,.92-.68,1.87-1.17,2.85-1.40,1.00-1.11,2.48-1.78,4.19-2.22,1.67-.43,3.58-.65,5.52-.84-.57-1.15-1.30-1.84-2.14-2.21-.90-.40-1.93-.46-3.05-.35-2.33,.80-4.40,2.05-6.39,3.46,.18,0,.36,0,.53,.01,.59,.04,1.12-.05,1.61,.14,.19,.07,.39,.14,.25,.53-.17,.47-1.46,.18-1.91,.15-.51-.03-1.07,.01-1.69,.16-.09,.02-.19,.05-.28,.02-2.43,1.50-4.17,3.02-6.19,4.73l-.34,.12c-1.80-.07-3.04,.18-3.78,.74-.67,.51-.72,1.31-.59,2.39-.31,1.01-.70,2.12-.80,3.30-2.11,1.81-4.46,3.62-5.55,6.26-.24,.77-.65,1.45-1.16,2.06,.43,.07,.78,.20,1.05,.41,.10,.08,.19,.16,.27,.26,.05-.45,.12-.90,.23-1.33,.15-.62,.37-1.19,.66-1.65,.06-.09,.12-.18,.30-.06,.19,.12,.13,.21,.07,.30-.27,.41-.47,.94-.61,1.52-.17,.69-.26,1.45-.28,2.15-.01,.22-.41,.24-.44,.02-.05-.37-.21-.66-.47-.85-.27-.20-.65-.32-1.14-.36-.45,.49-.96,.93-1.47,1.34-.42,.34-.82,.71-.91,1.26-.06,.96,1.12,1.13,2.24,1.20,2.55,.15,.52,1.60,1.92,2.87,.68,.47,1.31,1.02,1.79,1.69,.97,.35,1.57,.27,2.23-.03,.13-1.73-.02-2.61,.74-2.61h.08c.04-.22,.09-.44,.18-.66,.13-.32,.32-.65,.58-.97,.07-.08,.14-.17,.31-.03s.10,.22,.03,.31c-.23,.29-.40,.58-.51,.86-.09,.24-.15,.48-.18,.72,.13,.26,.10,.77,.09,1.68,1.45-.71,2.77-.89,4.25-.96,2.77-3.24,3.95-2.42,1.52-.06-.14,.27-.27,.51-.39,.74-.42,.81-.69,1.44-.78,2.54-.71,.62-4.19,3.48-2.89,4.54,.91-.13,1.48-.09,1.13,.59-.43,.91-1.73,2.80-1.30,3.84,.16,.38,.72,.34,1.27,.21,.04-.04,.08-.07,.12-.11,.91-.74,1.87-1.59,2.77-2.58,.89-.97,1.72-2.08,2.39-3.35,.09-.18,.18-.35,.44-.29,.27-1.00,.59-1.99,.95-2.99,.37-1.03,.79-2.07,1.24-3.11,.07-.15,.28-.18,.38-.04,.38,.55,.75,.95,1.12,1.21,.33,.24,.66,.35,.98,.35s.65-.11,.98-.33c.36-.25,.72-.63,1.09-1.15,.06-.09,.13-.18,.31-.05s.12,.21,.05,.31c-.40,.56-.79,.97-1.20,1.25s-.81,.42-1.23,.41c-.41,0-.82-.15-1.23-.44-.33-.24-.67-.57-1.00-1.01-.39,.91-.75,1.82-1.08,2.73-.37,1.01-.69,2.03-.97,3.04,.23,.19,.13,.37,.04,.55-.72,1.35-1.60,2.52-2.54,3.55-.76,.84-1.57,1.58-2.36,2.25,.11,.74,.30,1.44,.64,2.16,1.51-1.30,2.92-2.62,4.16-3.98,1.24-1.37,2.32-2.78,3.17-4.25,.06-.09,.11-.19,.30-.08s.13,.21,.08,.30c-.44,.76-.94,1.50-1.48,2.23,.10,.15,.02,.21-.06,.28-.16,.13-.25,.65-.29,1.32-.06,.91,0,2.04,.10,2.85,.01,.11,.03,.22-.19,.25s-.23-.08-.25-.19c-.11-.85-.16-2.01-.11-2.93,.01-.24,.04-.46,.07-.66-.33,.39-.67,.78-1.02,1.17-1.26,1.39-2.70,2.73-4.24,4.05-.01,.01-.03,.02-.04,.03,.04,.08,.09,.16,.14,.24-1.34,.97-2.43,1.31-.93,2.61,.50-.36,1.00-.72,1.50-1.08l1.60-1.15c.09-.06,.18-.13,.31,.05s.04,.24-.05,.31l-1.61,1.15c-.52,.37-1.03,.74-1.55,1.11-.03,.61,.11,1.05,.38,1.53,.13-.02,.24-.03,.33-.03,1.12-.81,2.24-1.63,3.36-2.44,.09-.07,.18-.13,.31,.05s.04,.24-.05,.31c-1.08,.79-2.17,1.58-3.26,2.37-.07,.13-.21,.30-.39,.50-1.10,.79-4.94,3.16-4.53,4.80v.01c.92-.26,1.84-.58,2.72-1.03,.91-.47,1.80-1.10,2.64-1.96,.08-.08,.15-.15,.31,0,.15,.15,.08,.23,0,.31-.87,.89-1.79,1.53-2.74,2.03v.04c-.01,.15-.01,.30-.02,.45s-.01,.30-.02,.45c-.01,.11-.01,.22-.23,.21s-.21-.12-.21-.23c.01-.15,.01-.30,.02-.45,.01-.08,.01-.17,.01-.25-.78,.36-1.57,.63-2.37,.85,.33,1.55-.48,2.88-1.31,4.21-.47,.38-4.31,3.49-2.71,4.42,.43,.21,.91,.31,1.39,.36z"/>
<path d="m2149.60,422.48c-.80-.48-1.83-1.07-2.83-1.27-.51-.98-1.20-1.77-2.13-2.37-.74-.48-.74-.44-.46-.97,.84-.09,1.19-.32,1.20-.55,.44,.01,.82,.07,1.14,.18,.37,.13,.65,.32,.85,.59,.07,.09,.13,.18,.31,.04,.18-.13,.11-.22,.04-.31-.26-.33-.61-.58-1.06-.74-.43-.15-.95-.22-1.56-.20-.05,0-.09,0-.13,.02-.32-.15-.80-.25-1.40-.23-.57-.54-1.05-1.17-.82-1.95,.03,.03,.08,.04,.13,.05,.45,.13,.87,.26,1.23,.43,.35,.15,.64,.34,.84,.56,.07,.08,.15,.16,.31,.01s.09-.23,.02-.31c-.25-.27-.58-.48-.98-.67-.29-.13-.61-.25-.95-.35,3.30-.67,6.25-.62,9.20,1.13,1.55,.64,2.28,1.38,3.12,2.52-.28,.24-.56,.47-.84,.71-1.93-.05-3.35,.22-4.24,.90-.80,.60-.96,1.68-.99,2.76z"/>
</g>
<g fill="#000">
<path d="m2215.20,513.80c-.65,.40-1.18,.68-1.85,.79,.03-.02,.06-.05,.08-.08,.43-.81,.93-1.52,1.49-2.16,.07-.08,.15-.17,.22-.25,.01,.27,.02,.53,.03,.80,.01,.30,.02,.61,.03,.91z"/>
<path d="m2223.47,531.50c-.44,.66-.98,1.26-1.59,1.81-.60,.54-1.28,1.05-2.01,1.53-.09,.06-.19,.12-.31-.06s-.03-.24,.06-.30c.70-.46,1.36-.96,1.96-1.49,.59-.53,1.11-1.10,1.52-1.73,.06-.09,.12-.18,.31-.06,.18,.12,.12,.21,.06,.30z"/>
<path d="m2228.94,524.98c-.28,.42-.55,.84-.83,1.27-.06,.09-.12,.18-.31,.06-.18-.12-.12-.21-.06-.30,.28-.42,.55-.85,.83-1.27,.06-.09,.12-.18,.31-.06,.18,.12,.12,.21,.06,.31z"/>
<path d="m2225.96,524.56c-.14,.63-.37,1.23-.77,1.78s-.99,1.04-1.84,1.43c-.10,.05-.20,.09-.29-.11s.01-.25,.11-.29c.78-.36,1.31-.80,1.67-1.29,.37-.49,.57-1.04,.70-1.62,.02-.11,.05-.21,.26-.16s.19,.15,.16,.26z"/>
<path d="m2231.32,518.02c-.22,.22-.41,.47-.58,.75-.16,.28-.31,.58-.42,.92-.04,.10-.07,.21-.28,.14s-.18-.18-.14-.28c.12-.36,.27-.69,.46-1.00s.40-.58,.64-.83c.08-.08,.15-.15,.31,0,.15,.15,.08,.23,0,.31z"/>
<path d="m2235.70,518.45c-.19,.62-.37,1.25-.60,1.87-.23,.64-.51,1.27-.87,1.90-.06,.09-.11,.19-.30,.08s-.14-.21-.08-.30c.35-.61,.61-1.22,.84-1.82,.22-.61,.40-1.23,.59-1.85,.03-.11,.06-.21,.27-.15s.18,.16,.15,.27z"/>
<path d="m2233.71,492.82c1.36,2.00,1.66,4.06,1.71,6.13,.15-.75,.32-1.51,.53-2.26,0-.01,.03-.07,.03-.07,.57-.80,.93-1.60,1.11-2.39s.18-1.59,.04-2.38c-.02-.11-.04-.21,.18-.25,.21-.04,.24,.07,.26,.18,.15,.85,.15,1.71-.04,2.56-.19,.84-.56,1.68-1.15,2.52-.37,1.39-.64,2.79-.90,4.19l-.05,.26c-.04,.21-.44,.18-.44-.04,0-.16,0-.31,.01-.47,.03-2.61,.06-5.23-1.63-7.71-.06-.09-.13-.18,.06-.31,.18-.12,.25-.03,.31,.06z"/>
<path d="m2230.38,497.11c-.02,.17-.03,.34-.05,.50-.01,.17-.03,.34-.04,.51-.01,.11-.02,.22-.24,.20s-.21-.13-.20-.24c.01-.17,.03-.34,.04-.50,.01-.17,.03-.34,.05-.51,.01-.11,.02-.22,.24-.20s.21,.13,.20,.24z"/>
<path d="m2229.45,502.93c.34,1.11,.60,2.24,.79,3.40,.13,.79,.21,1.59,.25,2.41,.09-.15,.19-.29,.30-.43,.36-.45,.84-.84,1.41-1.17,.09-.06,.19-.11,.30,.08s.02,.25-.08,.30c-.53,.31-.96,.66-1.28,1.07-.32,.40-.53,.85-.62,1.36-.04,.22-.44,.18-.44-.04,.01-1.20-.09-2.37-.27-3.51s-.44-2.25-.77-3.34c-.03-.11-.07-.21,.14-.27s.24,.04,.27,.14z"/>
<path d="m2234.09,505.01c.19,.90,.31,1.76,.35,2.59s.01,1.64-.08,2.43c-.01,.11-.03,.22-.25,.19s-.20-.14-.19-.25c.09-.75,.12-1.53,.08-2.35-.04-.81-.15-1.66-.34-2.52-.02-.11-.05-.21,.17-.26,.21-.05,.24,.06,.26,.17z"/>
<path d="m2238.07,504.27c.15,.82,.23,1.62,.19,2.39-.04,.78-.19,1.52-.51,2.24-.27,.82-.29,1.64-.15,2.46,.14,.84,.46,1.68,.84,2.53,.05,.10,.09,.20-.11,.29s-.25-.01-.29-.11c-.40-.87-.73-1.75-.88-2.63-.15-.90-.13-1.79,.17-2.69,0,0,.01-.02,.01-.02,.29-.66,.44-1.36,.47-2.09,.04-.74-.04-1.51-.19-2.29-.02-.11-.04-.21,.18-.25s.24,.07,.26,.18z"/>
<path d="m2239.99,497.67c-.10,.41-.20,.83-.31,1.25-.10,.41-.20,.83-.31,1.25-.02,.11-.05,.21-.26,.16s-.19-.16-.16-.27c.10-.41,.20-.83,.31-1.25,.10-.41,.20-.83,.31-1.25,.03-.11,.05-.21,.27-.16,.21,.05,.19,.16,.16,.27z"/>
<path d="m2238.02,486.71c.12,.38,.23,.76,.35,1.14,.03,.11,.06,.21-.15,.27-.21,.07-.24-.04-.27-.14-.12-.38-.23-.76-.35-1.14-.04-.11-.07-.21,.14-.27s.24,.04,.27,.14z"/>
<path d="m2239.03,478.38c.01,.52,.01,1.04-.03,3.27-.47,.42-.81,.95-.99,1.61-.18,.67-.20,1.49-.03,2.47,.02,.11,.04,.22-.18,.26s-.24-.07-.26-.18c-.19-1.05-.16-1.93,.04-2.66,.20-.75,.59-1.35,1.12-1.82l-.09-1.39c-.01-.52-.01-1.04-.02-1.55,0-.11,0-.22,.22-.22s.22,.11,.22,.22z"/>
<path d="m2230.76,475.48c1.28,.84,2.38,1.77,3.14,2.87,.77,1.11,1.21,2.38,1.16,3.88-.01,.15-.17,.25-.31,.19-.72-.31-1.45-.62-2.17-.93,.48,3.11,.36,5.59-.32,7.49-.72,2.01-2.05,3.38-3.95,4.16-.17,.07-.35-.09-.29-.27,.37-1.18,.59-2.36,.68-3.54s.04-2.36-.16-3.53c-.02-.11-.04-.22,.18-.25,.22-.04,.24,.07,.25,.18,.20,1.21,.26,2.43,.16,3.64-.08,1.06-.26,2.11-.56,3.18,1.55-.76,2.65-1.98,3.27-3.71,.68-1.91,.78-4.45,.24-7.67-.03-.17,.15-.31,.30-.24,.74,.32,1.49,.64,2.23,.96-.02-1.26-.42-2.34-1.08-3.29-.73-1.05-1.78-1.94-3.02-2.75-.09-.06-.18-.12-.06-.31,.12-.18,.21-.12,.30-.06z"/>
<path d="m2252.41,471.22c-.06,.14-.12,.29-.18,.43s-.11,.29-.17,.43c-.04,.10-.08,.20-.28,.12s-.16-.18-.12-.28c.06-.14,.12-.29,.18-.43s.11-.29,.17-.43c.04-.10,.08-.20,.28-.12s.16,.18,.12,.28z"/>
<path d="m2247.32,471.11c.42,.17,.76,.40,1.04,.68,.28,.27,.49,.59,.67,.94,.05,.10,.10,.20-.09,.29-.20,.10-.25,0-.29-.09-.16-.31-.35-.59-.59-.83s-.53-.44-.90-.58c-.10-.04-.20-.08-.12-.28s.18-.16,.28-.12z"/>
<path d="m2239.76,473.28c.55,.61,.91,1.32,1.10,2.13,.19,.79,.22,1.67,.12,2.61-.01,.11-.02,.22-.24,.20s-.21-.13-.19-.24c.09-.90,.07-1.73-.11-2.47-.18-.73-.50-1.38-1.00-1.93-.07-.08-.15-.16,.02-.31,.16-.15,.24-.06,.31,.02z"/>
<path d="m2214.21,475.74c-.03,.29-.06,.58-.09,.86-.03,.29-.06,.58-.08,.86-.01,.11-.02,.22-.24,.20s-.21-.13-.19-.24c.03-.29,.06-.58,.08-.86,.03-.29,.06-.58,.09-.86,.01-.11,.02-.22,.24-.20s.21,.13,.20,.24z"/>
<path d="m2218.95,473.24c.12,.41,.24,.82,.37,1.23l.11,.37c.03,.11,.06,.21-.15,.27s-.24-.04-.27-.15l-.11-.37c-.12-.41-.24-.82-.37-1.23-.03-.10-.06-.21,.15-.27s.24,.04,.27,.15z"/>
<path d="m2228.67,479.77c.05,.18,.08,.36,.09,.53,.01,.18,.01,.35,0,.53-.01,.11-.02,.22-.24,.20s-.21-.13-.20-.24c.01-.15,.01-.31,0-.46-.01-.16-.04-.31-.08-.46-.03-.11-.06-.21,.15-.27s.24,.05,.27,.16z"/>
<path d="m2232.02,472.37c.21,.21,.35,.44,.40,.66,.06,.24,.02,.48-.10,.71-.05,.10-.11,.20-.30,.09-.19-.10-.14-.20-.09-.30,.07-.14,.09-.27,.06-.41s-.13-.30-.28-.46c-.08-.08-.15-.15,0-.31,.15-.15,.23-.08,.31,0z"/>
<path d="m2208.82,473.54c0,.52,.08,1.02,.25,1.48,.17,.47,.44,.91,.82,1.32,.51,.58,.77,1.15,.91,1.73,.14,.57,.15,1.13,.18,1.68,0,.11,.01,.22-.21,.23s-.22-.10-.23-.21c-.02-.54-.04-1.08-.16-1.60-.13-.52-.36-1.03-.81-1.55-.42-.45-.71-.94-.91-1.46-.19-.52-.28-1.07-.28-1.64,0-.11,0-.22,.22-.22s.22,.11,.22,.22z"/>
<path d="m2218.21,479.86c.52,.97,.81,1.92,.92,2.88,.12,.95,.06,1.92-.11,2.93-.19,1.17,.06,2.31,.70,3.38,.59,1.00,1.52,1.95,2.72,2.83-.37-1.29-.59-2.56-.54-3.79,.06-1.44,.50-2.83,1.51-4.14,.43-.56,.72-1.14,.92-1.73,.21-.59,.32-1.19,.40-1.77,.01-.11,.03-.22,.24-.19,.22,.02,.20,.13,.19,.24-.08,.62-.20,1.24-.41,1.86s-.53,1.25-.99,1.85c-.95,1.24-1.36,2.54-1.42,3.89-.06,1.37,.24,2.79,.70,4.25,.06,.19-.17,.35-.33,.25-1.51-1.02-2.66-2.14-3.37-3.33-.69-1.17-.97-2.40-.75-3.67,.16-.97,.21-1.90,.10-2.81s-.38-1.80-.87-2.72c-.05-.09-.11-.19,.09-.29,.19-.11,.25-.01,.30,.09z"/>
<path d="m2214.44,485.63c0,1.04-.29,2.08-.81,3.12-.41,.82-.95,1.63-1.59,2.44,.33-.13,.67-.26,1.00-.42,.58-.27,1.16-.59,1.74-1.03,.40-.30,.81-.65,1.21-1.07,.41-.42,.82-.91,1.24-1.49,.06-.09,.13-.18,.31-.05s.11,.22,.05,.31c-.43,.59-.86,1.10-1.28,1.54-.38,.39-.76,.73-1.14,1.02,.06,.27,.10,.47,.14,.68,.05,.25,.10,.50,.15,.76,.02,.11,.05,.21-.17,.26-.21,.05-.24-.06-.26-.17-.07-.31-.11-.54-.16-.77-.03-.16-.06-.32-.10-.48-.52,.37-1.05,.65-1.56,.89-.60,.28-1.19,.49-1.78,.71-.19,.07-.37-.19-.24-.35,.84-1.00,1.55-1.99,2.04-2.98,.49-.98,.77-1.95,.77-2.92,0-.11,0-.22,.22-.22s.22,.11,.22,.22z"/>
<path d="m2209.85,485.26v.99c0,.11,0,.22-.22,.22s-.22-.11-.22-.22v-.99c0-.11,0-.22,.22-.22s.22,.11,.22,.22z"/>
<path d="m2206.97,479.64c.60,1.47,.76,2.84,.53,4.12-.22,1.28-.83,2.47-1.74,3.59,0,0-.03,.03-.03,.03-.87,.75-1.52,1.65-2.00,2.66-.33,.68-.58,1.41-.77,2.18,.24-.33,.48-.64,.77-.93,.57-.58,1.25-1.03,2.15-1.28,.92-.51,1.79-1.07,2.60-1.70,.82-.64,1.58-1.34,2.28-2.13,.07-.08,.15-.16,.31-.02s.09,.22,.02,.31c-.72,.81-1.50,1.53-2.34,2.18s-1.73,1.23-2.68,1.75c0,0-.05,.02-.05,.02-.82,.22-1.45,.64-1.98,1.17s-.95,1.19-1.36,1.87c-.11,.18-.44,.06-.40-.15,.22-1.24,.55-2.41,1.05-3.47s1.18-2.00,2.10-2.79c.86-1.06,1.43-2.18,1.64-3.38s.06-2.49-.51-3.88c-.04-.10-.08-.20,.12-.29,.20-.08,.25,.02,.29,.12z"/>
<path d="m2216.30,494.60c-.14,.40,.15,.77,.74,1.53,.13,.17,.27,.35,.40,.52,.79,1.05,1.08,2.24,1.10,3.49,.02,1.22-.21,2.49-.45,3.72-.04,.21-.40,.20-.43-.01-.20-1.36-.78-2.56-1.63-3.63-.86-1.08-2.01-2.04-3.33-2.92-.09-.06-.18-.12-.06-.31,.12-.18,.21-.12,.30-.06,1.36,.91,2.54,1.90,3.43,3.02,.68,.85,1.19,1.77,1.49,2.78,.15-.87,.26-1.74,.25-2.58-.02-1.16-.29-2.26-1.01-3.23-.15-.21-.28-.37-.39-.51-.69-.89-1.02-1.32-.81-1.94,.04-.10,.07-.21,.28-.14s.17,.18,.14,.28z"/>
<path d="m2220.28,494.34c.16,.17,.33,.34,.49,.52,.16,.17,.33,.34,.49,.52,.08,.08,.15,.16-.01,.31s-.24,.07-.31-.01c-.16-.17-.33-.34-.49-.52-.16-.17-.33-.34-.49-.52-.07-.08-.15-.16,.01-.31s.24-.07,.31,.01z"/>
<path d="m2225.16,495.91c-.31,.98-.61,1.95-.91,2.93-.31,.98-.61,1.95-.92,2.93-.03,.11-.06,.21-.27,.14-.21-.06-.18-.17-.14-.27,.31-.98,.61-1.95,.91-2.93,.31-.98,.61-1.95,.92-2.93,.03-.11,.06-.21,.27-.15,.21,.07,.18,.17,.14,.28z"/>
<path d="m2227.92,512.28c-.09,.25-.09,.49,0,.73,.04,.10,.08,.21-.13,.28-.20,.08-.24-.02-.28-.13-.13-.35-.13-.70,0-1.05,.04-.11,.08-.21,.28-.13,.21,.08,.17,.18,.13,.28z"/>
<path d="m2225.02,507.47c-.13,.51-.27,1.03-.40,1.54-.13,.52-.26,1.03-.40,1.55-.03,.11-.06,.21-.27,.16-.21-.06-.19-.16-.16-.27,.13-.52,.27-1.03,.40-1.55,.13-.51,.27-1.03,.40-1.54,.03-.11,.05-.21,.27-.16,.21,.05,.19,.16,.16,.27z"/>
<path d="m2220.84,507.45,.38,.38c.08,.08,.15,.15,0,.31-.16,.15-.24,.08-.31,0l-.38-.38c-.08-.08-.15-.15,0-.31,.16-.15,.24-.08,.31,0z"/>
<path d="m2215.93,505.10c-.10,.29-.20,.58-.31,.87-.10,.29-.20,.58-.31,.87-.04,.10-.07,.21-.28,.13-.20-.07-.17-.18-.13-.28,.10-.29,.20-.58,.31-.87,.10-.29,.20-.58,.31-.87,.04-.11,.07-.21,.28-.14s.17,.18,.14,.28z"/>
<path d="m2208.90,512.53c-.27,.29-.45,.61-.58,.94-.13,.34-.20,.69-.26,1.06-.02,.11-.04,.22-.25,.18-.22-.04-.20-.14-.18-.25,.07-.39,.15-.77,.29-1.14,.14-.38,.35-.74,.66-1.08,.07-.08,.15-.16,.31-.01s.09,.23,.01,.31z"/>
<path d="m2188.78,532.24c-.10,.22-.24,.45-.43,.67-.18,.22-.40,.43-.67,.65-.08,.07-.17,.14-.31-.04-.14-.17-.05-.24,.03-.31,.25-.19,.45-.39,.61-.59,.16-.19,.28-.38,.36-.56,.05-.10,.09-.20,.29-.12,.20,.09,.15,.19,.11,.29z"/>
<path d="m2191.93,530.57c-.09,.22-.24,.41-.43,.57-.18,.15-.41,.28-.68,.39-.11,.04-.21,.08-.28-.13-.08-.21,.03-.25,.13-.28,.22-.08,.41-.19,.55-.31s.24-.26,.31-.41c.04-.10,.09-.20,.29-.11s.15,.19,.11,.29z"/>
<path d="m2196.11,528.02c-.07,.12-.15,.24-.26,.36s-.26,.24-.45,.36c-.09,.06-.19,.12-.30-.07s-.02-.25,.08-.30c.16-.09,.27-.19,.36-.28,.08-.09,.15-.19,.21-.28s.11-.19,.30-.07c.19,.11,.13,.20,.08,.30z"/>
<path d="m2202.40,511.66c-.20,.59-.34,1.17-.39,1.75s-.02,1.16,.10,1.73c.02,.11,.05,.21-.16,.26s-.24-.06-.26-.17c-.14-.62-.17-1.25-.11-1.87s.20-1.24,.41-1.85c.04-.11,.07-.21,.28-.14s.17,.18,.14,.28z"/>
<path d="m2206.68,468.13c-.02,.49-.15,.97-.38,1.45s-.56,.95-.99,1.42c-.07,.08-.15,.16-.31,.01s-.09-.23-.01-.31c.40-.44,.71-.88,.92-1.31,.20-.43,.32-.86,.33-1.28,0-.11,.01-.22,.23-.21s.21,.12,.21,.23z"/>
<path d="m2202.31,464.27c.38,.66,.61,1.33,.74,2.00,.13,.66,.16,1.33,.12,1.99,0,.11-.01,.22-.23,.21s-.21-.12-.21-.23c.04-.63,.01-1.25-.11-1.88-.12-.62-.34-1.25-.69-1.87-.05-.09-.11-.19,.08-.30s.25-.01,.30,.08z"/>
<path d="m2196.52,471.45c-.79-.58-1.35-1.17-1.71-1.76-.36-.61-.49-1.22-.40-1.84,.02-.11,.04-.21,.25-.18,.22,.04,.20,.14,.18,.25-.08,.52,.04,1.03,.34,1.55,.32,.54,.85,1.08,1.59,1.63,.09,.06,.18,.13,.05,.31s-.22,.11-.31,.05z"/>
<path d="m2202.93,482.34v.48,.47c0,.11,0,.22-.22,.22s-.22-.11-.22-.22v-.47-.48c0-.11,0-.22,.22-.22s.22,.11,.22,.22z"/>
<path d="m2194.74,474.09c1.29,1.22,2.06,2.69,2.47,4.32,.26,1.01,.37,2.08,.39,3.20,.01,0,.03-.01,.05-.01,.58-.20,1.03-.72,1.34-1.55,.33-.88,.50-2.10,.53-3.65,0-.01,.02-.10,.03-.11,.46-.75,.74-1.51,.93-2.26s.28-1.52,.35-2.29c.02-.19,.28-.27,.40-.11,.75,1.06,1.41,2.16,1.92,3.34s.85,2.43,.98,3.79c.01,.11,.02,.22-.20,.24s-.23-.09-.24-.20c-.12-1.30-.46-2.51-.94-3.65-.41-.97-.93-1.88-1.53-2.77-.06,.58-.15,1.17-.30,1.76-.19,.78-.48,1.55-.95,2.33-.03,1.58-.21,2.83-.55,3.74-.36,.97-.90,1.57-1.61,1.81-.07,.02-.13,.04-.19,.01-.01,.54-.04,1.09-.08,1.65-.01,.11-.02,.22-.24,.20s-.21-.13-.20-.24c.15-1.82,.11-3.55-.29-5.11-.39-1.55-1.13-2.95-2.35-4.11-.08-.07-.16-.15-.01-.31s.23-.08,.31-.01z"/>
<path d="m2199.54,494.62c-.09,.58-.18,1.15-.27,1.73-.09,.57-.18,1.15-.27,1.72-.01,.11-.03,.22-.25,.18-.21-.03-.20-.14-.18-.25,.09-.58,.18-1.15,.27-1.72,.09-.58,.18-1.15,.27-1.73,.02-.11,.03-.21,.25-.18,.21,.04,.20,.14,.18,.25z"/>
<path d="m2190.32,498.53c.08,.44,.16,.87,.24,1.31,.02,.11,.04,.21-.18,.25-.21,.04-.24-.07-.26-.18-.08-.44-.16-.87-.24-1.31-.02-.11-.04-.21,.18-.25,.21-.04,.24,.07,.25,.18z"/>
<path d="m2198.29,487.95c-.11,.87-.33,1.71-.67,2.52-.35,.81-.83,1.60-1.46,2.35l-.01,.01c-.79,.86-1.17,1.75-1.29,2.68s.01,1.90,.27,2.89c.03,.11,.05,.21-.16,.27-.21,.05-.24-.05-.27-.16-.27-1.03-.41-2.05-.28-3.05,.13-1.01,.55-1.99,1.40-2.92,.60-.71,1.06-1.46,1.39-2.23,.33-.78,.54-1.58,.64-2.41,.01-.11,.03-.22,.24-.19,.22,.03,.20,.14,.19,.25z"/>
<path d="m2196.21,484.85c.15,.84,.02,1.67-.33,2.51-.35,.81-.91,1.63-1.63,2.44,0,0-.02,.02-.02,.02-.75,.63-1.28,1.32-1.70,2.03-.42,.72-.73,1.47-1.04,2.23-.04,.10-.08,.20-.29,.12-.20-.08-.16-.18-.12-.28,.31-.77,.63-1.54,1.07-2.29s1.00-1.47,1.78-2.13c.68-.77,1.21-1.54,1.54-2.31,.32-.75,.44-1.51,.30-2.25-.02-.11-.04-.21,.18-.26,.21-.04,.24,.07,.26,.18z"/>
<path d="m2186.04,489.68c.24,1.68-.02,3.12-.65,4.38-.62,1.26-1.61,2.34-2.82,3.31-.08,.07-.17,.14-.31-.04-.14-.17-.05-.24,.04-.31,1.16-.93,2.11-1.97,2.70-3.16s.84-2.54,.61-4.13c-.01-.11-.03-.22,.19-.25s.23,.08,.25,.19z"/>
<path d="m2173.05,496.87c.13,.26,.25,.52,.37,.78,.14,.28,.27,.55,.40,.83,.05,.10,.09,.20-.10,.29-.20,.09-.25,0-.29-.10-.13-.28-.27-.55-.40-.83-.12-.26-.25-.52-.37-.77-.05-.10-.09-.20,.10-.29,.20-.09,.25,0,.29,.10z"/>
<path d="m2167.90,496.97c-.01,.99,.07,1.97,.31,2.91,.25,.94,.65,1.85,1.31,2.72,0,0,.02,.04,.02,.04,.33,.67,.52,1.34,.65,2.02,.09,.50,.15,1.00,.18,1.50,.63-.67,1.11-1.35,1.46-2.06,.40-.82,.61-1.67,.63-2.55,0-.11,0-.22,.22-.21,.22,0,.22,.11,.21,.22-.02,.94-.25,1.85-.67,2.73-.43,.88-1.06,1.72-1.89,2.53-.13,.13-.36,.04-.37-.15-.03-.65-.08-1.30-.20-1.93s-.30-1.26-.60-1.89c-.68-.91-1.11-1.87-1.37-2.86s-.34-2.00-.33-3.03c0-.11,0-.22,.22-.22s.22,.11,.22,.22z"/>
<path d="m2168.60,514.56c.04-.54,.12-1.07,.25-1.62,.13-.54,.29-1.07,.51-1.61,.04-.10,.08-.20,.28-.12,.21,.08,.16,.18,.13,.28-.21,.52-.37,1.04-.49,1.55s-.20,1.03-.24,1.54c-.01,.11-.01,.22-.24,.20-.22-.01-.21-.12-.20-.23z"/>
<path d="m2168.00,519.46c.09-.65,.18-1.30,.27-1.95,.01-.11,.03-.22,.25-.19s.20,.14,.19,.25c-.09,.65-.18,1.30-.27,1.95-.01,.11-.03,.22-.25,.19s-.20-.14-.19-.25z"/>
<path d="m2164.63,527.67c.32-.32,.63-.70,.92-1.12,.30-.43,.58-.90,.86-1.39,.05-.10,.11-.19,.30-.09,.19,.11,.14,.20,.08,.30-.28,.51-.58,.99-.88,1.43-.31,.44-.63,.84-.98,1.18-.08,.08-.16,.15-.31,0s-.07-.23,0-.31z"/>
<path d="m2159.76,500.12v.81c0,.11,0,.22-.22,.22s-.22-.11-.22-.22v-.81c0-.11,0-.22,.22-.22s.22,.11,.22,.22z"/>
<path d="m2151.52,519.10c-.01-.20-.02-.40-.04-.60l-.04-.61c0-.11-.01-.22,.21-.23s.23,.09,.23,.21l.04,.60c.01,.20,.02,.40,.04,.60,0,.11,.01,.22-.21,.23s-.23-.09-.23-.21z"/>
<path d="m2172.21,485.34c-.42,1.45-.75,2.96-.72,4.25,.02,1.25,.37,2.29,1.27,2.87,1.05,.68,1.51,1.70,1.95,2.69,.03,.06,.05,.12,.08,.18,.13-.49,.24-1.01,.29-1.53,.07-.64,.07-1.26-.02-1.82-.02-.11-.04-.22,.18-.26,.21-.04,.24,.07,.25,.18,.10,.60,.10,1.27,.03,1.94-.08,.75-.25,1.51-.47,2.17-.06,.18-.32,.20-.40,.03-.11-.23-.22-.47-.33-.72-.41-.93-.84-1.89-1.79-2.50-1.04-.67-1.45-1.84-1.48-3.23-.02-1.34,.31-2.89,.74-4.38,.03-.11,.06-.21,.27-.15s.18,.16,.15,.27z"/>
<path d="m2170.76,479.81c.14,1.13,.10,2.17-.09,3.22-.19,1.04-.53,2.08-.98,3.21-.53,1.35-.77,2.78-.70,4.22,.07,1.43,.44,2.85,1.10,4.20,.05,.10,.10,.20-.10,.29-.20,.10-.25,0-.29-.10-.70-1.40-1.08-2.89-1.15-4.37-.07-1.50,.18-2.99,.73-4.40,.44-1.10,.77-2.12,.95-3.13,.19-1.00,.23-2.00,.09-3.08-.01-.11-.03-.22,.19-.25,.21-.03,.23,.08,.25,.19z"/>
<path d="m2161.15,493.49c-.30,.66-.36,1.32-.25,1.98,.12,.67,.41,1.35,.82,2.03,.06,.09,.11,.19-.07,.30-.19,.11-.25,.02-.30-.08-.43-.72-.75-1.45-.87-2.18-.13-.74-.06-1.49,.28-2.23,.05-.10,.09-.20,.29-.11s.15,.19,.11,.29z"/>
<path d="m2156.96,491.99c.07,.39,.09,.85,.05,1.31-.04,.40-.14,.79-.30,1.14v.01c-.19,.37-.23,.74-.16,1.11,.08,.39,.28,.78,.55,1.18,.06,.09,.12,.18-.06,.31s-.24,.04-.31-.06c-.31-.44-.53-.89-.62-1.34-.09-.47-.05-.93,.20-1.40,.14-.30,.22-.64,.26-.99,.04-.41,.02-.83-.04-1.19-.02-.11-.04-.22,.18-.25,.22-.04,.24,.07,.25,.18z"/>
<path d="m2181.46,455.70c-.13,1.15-.07,2.23,.16,3.26,.23,1.02,.62,2.00,1.16,2.93,.06,.09,.11,.19-.08,.30s-.24,.01-.30-.08c-.55-.96-.97-1.98-1.21-3.05s-.31-2.20-.16-3.40c.01-.11,.02-.22,.24-.19,.22,.02,.21,.13,.19,.24z"/>
<path d="m2178.39,458.67c.57,1.01,1.06,2.10,1.43,3.29s.62,2.50,.71,3.95c.01,.11,.01,.22-.21,.23s-.22-.10-.23-.21c-.08-1.41-.33-2.68-.69-3.84s-.84-2.21-1.39-3.20c-.05-.10-.11-.19,.08-.30s.25-.01,.30,.08z"/>
<path d="m2163.17,459.14c-1.47,2.09-2.11,3.79-2.23,5.26-.12,1.46,.27,2.68,.85,3.81,0,0,.01,.03,.01,.03,.40,1.16,.58,2.31,.55,3.47-.02,1.15-.26,2.31-.67,3.46-.04,.11-.07,.21-.28,.13-.21-.07-.17-.18-.13-.28,.40-1.11,.62-2.21,.65-3.32,.02-1.10-.14-2.20-.52-3.30-.61-1.19-1.02-2.49-.89-4.03s.79-3.32,2.31-5.48c.06-.09,.13-.18,.31-.06,.18,.13,.12,.22,.05,.31z"/>
<path d="m2177.36,453.12c.13,.63,.07,1.29-.22,1.93-.26,.59-.71,1.15-1.38,1.68-.68,.53-1.08,1.22-1.26,2.05-.19,.85-.15,1.84,.06,2.95,.02,.11,.04,.22-.18,.26-.21,.04-.24-.07-.26-.18-.21-1.17-.25-2.21-.05-3.12,.20-.92,.65-1.70,1.42-2.30,.61-.48,1.01-.99,1.25-1.51,.25-.55,.30-1.12,.19-1.66-.02-.11-.05-.21,.17-.26,.21-.04,.24,.07,.26,.17z"/>
<path d="m2162.33,454.41c.29,.93,.30,1.84,.03,2.75-.26,.90-.80,1.79-1.62,2.66,0,0-.02,.02-.02,.02-.79,.66-1.27,1.50-1.57,2.43-.31,.95-.42,2.01-.48,3.11-.01,.11-.01,.22-.23,.21s-.21-.12-.21-.23c.06-1.13,.18-2.22,.50-3.22s.84-1.90,1.69-2.62c.77-.82,1.27-1.65,1.52-2.48,.24-.82,.23-1.66-.03-2.50-.03-.11-.07-.21,.14-.27s.24,.04,.27,.15z"/>
<path d="m2170.93,454.86c-.05,.34-.05,.66,0,.98,.05,.31,.17,.61,.37,.90,.06,.09,.12,.18-.06,.31-.18,.12-.24,.04-.31-.06-.24-.35-.38-.71-.44-1.07-.06-.37-.06-.74,0-1.11,.01-.11,.03-.22,.25-.19s.20,.14,.19,.25z"/>
<path d="m2170.52,452.60c-.79,.33-1.39,.89-1.82,1.69-.42,.79-.67,1.81-.75,3.06,.05,.06,.08,.11,.08,.15,.42,.57,.71,1.25,.89,2.01,.20,.83,.27,1.77,.24,2.79,0,.11-.01,.22-.23,.21s-.21-.12-.21-.22c.03-.99-.04-1.89-.23-2.68-.16-.67-.41-1.27-.76-1.77-1.63,1.52-2.43,3.20-2.48,5.03-.06,1.91,.69,3.99,2.13,6.21,.06,.09,.12,.19-.06,.31s-.24,.02-.30-.07c-1.49-2.30-2.26-4.46-2.20-6.46,.06-1.97,.92-3.77,2.69-5.39v-.01c.07-1.37,.34-2.49,.81-3.37,.48-.89,1.15-1.52,2.04-1.89,.10-.04,.20-.08,.29,.12,.08,.20-.02,.25-.12,.29z"/>
<path d="m2168.08,449.44c-.02,.18-.04,.32-.05,.47-.11,1.04-.22,2.21-1.01,2.92-.44,.39-.72,.85-.92,1.34-.20,.51-.30,1.06-.37,1.64-.01,.11-.02,.22-.24,.19-.22-.02-.20-.13-.19-.25,.07-.61,.19-1.20,.40-1.75,.22-.56,.54-1.07,1.03-1.51,.66-.59,.78-1.68,.87-2.63,.02-.18,.04-.35,.05-.48,.01-.11,.03-.22,.25-.19s.20,.14,.19,.25z"/>
<path d="m2191.97,474.93c.26,.54,.47,1.10,.61,1.67s.21,1.16,.18,1.77c0,.11-.01,.22-.23,.21s-.21-.12-.21-.23c.03-.57-.04-1.11-.16-1.65-.13-.53-.34-1.06-.59-1.58-.05-.10-.09-.20,.11-.29s.24,0,.29,.10z"/>
<path d="m2192.04,482.77c.19,.90,.20,1.82,.04,2.74s-.50,1.86-1.00,2.81c-.34,.79-.67,1.58-1.01,2.37-.05,.10-.09,.20-.29,.12s-.16-.19-.12-.29c.34-.79,.67-1.59,1.01-2.38,0,0,.01-.02,.01-.02,.49-.91,.81-1.80,.97-2.68,.15-.87,.14-1.74-.04-2.58-.02-.11-.04-.22,.17-.26,.21-.05,.24,.06,.26,.17z"/>
<path d="m2187.06,475.47c1.43,1.59,2.36,3.27,2.80,5.04,.45,1.77,.40,3.63-.14,5.57-.03,.11-.06,.21-.27,.15s-.18-.16-.15-.27c.52-1.87,.57-3.65,.14-5.35s-1.33-3.32-2.71-4.86c-.07-.08-.14-.16,.02-.31s.24-.06,.31,.02z"/>
<path d="m2186.62,484.27c-.44,.93-.93,1.86-1.53,2.79s-1.30,1.86-2.13,2.79c-.48,.53-.92,1.12-1.30,1.77-.38,.66-.71,1.38-.97,2.19-.06,.20-.44,.13-.42-.08,.04-.66-.04-1.32-.22-1.98s-.48-1.33-.88-1.99v.01c-.80-1.18-1.14-2.37-1.08-3.55,.07-1.18,.54-2.35,1.38-3.52,.48-.82,.82-1.65,1.06-2.47s.36-1.65,.39-2.48c0-.11,.01-.22,.23-.21s.21,.12,.21,.23c-.04,.86-.16,1.72-.41,2.58s-.61,1.72-1.11,2.58c0,0-.01,.02-.01,.02-.79,1.11-1.24,2.21-1.30,3.30-.06,1.10,.27,2.19,1.01,3.29l.01,.01c.42,.70,.73,1.40,.93,2.11,.09,.33,.16,.66,.20,.99,.19-.43,.39-.84,.62-1.22,.40-.68,.86-1.30,1.36-1.85,.82-.91,1.51-1.83,2.09-2.74,.59-.92,1.08-1.83,1.50-2.74,.05-.10,.09-.20,.29-.11s.15,.19,.11,.29z"/>
<path d="m2173.57,480.07c-.03,1.09,.07,2.11,.29,3.07,.22,.95,.58,1.84,1.08,2.66,.06,.09,.11,.19-.07,.30-.19,.12-.24,.02-.30-.07-.52-.86-.90-1.79-1.13-2.78-.23-1.00-.33-2.06-.30-3.18,0-.11,.01-.22,.22-.21,.22,.01,.22,.12,.21,.22z"/>
<path d="m2166.14,484.05v.64,.64c0,.11,0,.22-.22,.22s-.22-.11-.22-.22v-.64-.64c0-.11,0-.22,.22-.22s.22,.11,.22,.22z"/>
<path d="m2168.60,477.26c.02,.75-.08,1.48-.31,2.18-.24,.70-.61,1.37-1.15,2.00-.07,.08-.14,.17-.31,.02-.17-.14-.09-.22-.02-.31,.50-.59,.85-1.21,1.06-1.86,.22-.65,.31-1.33,.29-2.03,0-.11-.01-.22,.21-.22s.22,.11,.22,.21z"/>
<path d="m2161.91,490.44c-1.20-2.99-1.49-5.36-1.19-7.29,.30-1.95,1.20-3.43,2.38-4.64,.79-.81,1.48-1.61,1.93-2.61s.66-2.20,.50-3.82c-.01-.11-.02-.22,.20-.24s.22,.09,.24,.20c.16,1.70-.06,2.97-.54,4.04-.47,1.06-1.19,1.90-2.01,2.74-1.12,1.14-1.97,2.56-2.26,4.40-.29,1.86,0,4.16,1.17,7.07,.04,.10,.08,.20-.12,.28s-.25-.02-.29-.12z"/>
<path d="m2158.05,485.53c-.18,.48-.25,.97-.19,1.45,.05,.48,.23,.97,.53,1.46,.06,.09,.12,.19-.07,.30-.19,.12-.24,.02-.30-.07-.33-.54-.53-1.09-.59-1.64s.01-1.10,.22-1.65c.04-.10,.08-.20,.28-.13,.21,.08,.16,.18,.13,.28z"/>
<path d="m2177.03,472.05c.79,1.11,1.25,2.26,1.34,3.46s-.18,2.44-.86,3.73c-.05,.09-.10,.19-.29,.09-.20-.10-.14-.20-.09-.29,.64-1.21,.90-2.37,.81-3.49-.08-1.12-.52-2.20-1.26-3.24-.07-.09-.13-.18,.05-.31s.24-.04,.31,.05z"/>
<path d="m2182.96,467.41c.48,1.15,.73,2.32,.78,3.50,.05,1.17-.12,2.36-.48,3.55-.06,.20-.42,.16-.43-.06-.04-1.10-.27-2.09-.68-2.96s-1.02-1.62-1.81-2.26c-.08-.07-.17-.14-.03-.31s.22-.10,.31-.03c.85,.68,1.49,1.48,1.93,2.41,.27,.57,.47,1.19,.59,1.85,.13-.73,.19-1.46,.16-2.19-.04-1.12-.28-2.24-.74-3.34-.04-.10-.08-.20,.12-.29,.20-.08,.25,.02,.29,.12z"/>
<path d="m2186.48,462.60c.78,.77,1.33,1.79,1.67,3.05,.33,1.24,.45,2.70,.39,4.37v.01c-.08,.71-.11,1.40-.03,2.04,.07,.63,.25,1.21,.58,1.73,.06,.09,.12,.19-.06,.31-.19,.12-.25,.02-.31-.07-.37-.58-.57-1.23-.65-1.92-.08-.68-.05-1.40,.03-2.14v.01c.06-1.63-.06-3.05-.37-4.24-.32-1.18-.83-2.13-1.55-2.85-.08-.08-.16-.15,0-.31,.15-.16,.23-.08,.31,0z"/>
<path d="m2177.14,461.67c-.51,.62-.82,1.35-.97,2.16-.15,.82-.13,1.72,.02,2.70,.02,.11,.04,.21-.18,.25-.21,.04-.23-.07-.25-.18-.16-1.02-.18-1.98-.02-2.85,.16-.88,.51-1.67,1.06-2.36,.07-.08,.14-.17,.31-.03s.10,.22,.03,.31z"/>
<path d="m2158.83,474.00c-.08,1.82-.61,3.30-1.46,4.52-.85,1.21-2.01,2.17-3.38,2.97-.09,.06-.19,.11-.30-.08s-.02-.24,.08-.30c1.31-.77,2.43-1.69,3.24-2.85,.81-1.15,1.31-2.55,1.39-4.28,0-.11,.01-.22,.23-.21s.21,.12,.21,.23z"/>
<path d="m2158.36,467.70c.10,.68,.06,1.34-.09,2.00-.15,.65-.41,1.30-.74,1.97-.05,.10-.10,.19-.29,.10-.20-.10-.15-.20-.10-.29,.32-.64,.57-1.26,.71-1.87s.18-1.21,.09-1.84c-.01-.11-.03-.22,.19-.25s.24,.08,.25,.19z"/>
<path d="m2170.76,466.79v.62c.07,1.07,.14,2.15,.21,3.22l.02,.29c.01,.11,.01,.22-.20,.24h-.07c-.03,.04-.08,.06-.18,.06-.22,0-.22-.11-.22-.22v-3.56c-.02-.29-.04-.58-.06-.87-.01-.11-.02-.22,.20-.24,.22-.01,.23,.09,.24,.20v.07c.05,.04,.05,.11,.05,.18z"/>
<path d="m2173.75,461.26c-.88,1.07-1.23,2.10-1.25,3.11s.29,2.02,.75,3.02c1.04,1.67,1.38,3.33,1.27,5.00-.10,1.66-.65,3.31-1.38,4.96-.05,.10-.09,.20-.29,.11s-.15-.19-.11-.29c.72-1.60,1.24-3.21,1.34-4.81,.10-1.59-.22-3.17-1.21-4.76,0,0-.01-.02-.01-.02-.49-1.06-.82-2.13-.80-3.23,.02-1.11,.41-2.23,1.35-3.38,.07-.08,.14-.17,.31-.03s.10,.22,.03,.31z"/>
<path d="m2154.52,426.97c1.45-1.11,2.87-1.74,4.36-1.90,1.48-.15,3.01,.17,4.67,.95,.55-.01,1.10-.01,1.65-.02,.56-.01,1.13-.02,1.69-.02,.11,0,.22,0,.22,.22s-.11,.22-.22,.22c-.57,.01-1.13,.02-1.69,.02-.51,.01-1.01,.01-1.52,.02-.01,.01-.02,.02-.03,.03-1.78,1.57-3.30,2.43-4.65,2.71-1.39,.29-2.59-.02-3.68-.80-.11-.08-.22-.16-.07-.38s.27-.15,.38-.07c.98,.68,2.04,.96,3.26,.71,1.18-.25,2.52-.98,4.09-2.31-1.44-.63-2.76-.88-4.03-.75-1.38,.14-2.72,.74-4.09,1.79-.11,.08-.22,.16-.38-.05-.16-.22-.06-.30,.05-.38z"/>
<path d="m2158.82,426.13c.61,0,1.10,.49,1.10,1.10,0,.60-.49,1.10-1.10,1.10-.60,0-1.10-.49-1.10-1.10s.49-1.10,1.10-1.10z"/>
<path d="m2166.39,432.78c.79-.41,1.40-.85,1.91-1.30,.50-.45,.90-.91,1.24-1.37,.06-.09,.13-.18,.31-.05s.11,.22,.05,.31c-.36,.49-.78,.98-1.30,1.45-.53,.47-1.17,.92-2.00,1.35-.10,.05-.20,.10-.29-.09-.10-.19-.01-.25,.09-.29z"/>
<path d="m2182.00,426.32c.41-.11,.81-.11,1.22,.01,.40,.11,.79,.33,1.18,.65,.08,.07,.17,.14,.03,.31s-.22,.10-.31,.03c-.34-.28-.69-.47-1.02-.56s-.66-.09-.99-.01c-.11,.03-.21,.06-.27-.16-.06-.21,.05-.24,.15-.27z"/>
<path d="m2173.07,426.68c.35-.80,.88-1.41,1.61-1.80,.72-.38,1.63-.54,2.74-.44,.11,.01,.22,.02,.20,.24s-.13,.21-.24,.20c-1.03-.09-1.86,.05-2.50,.39-.64,.33-1.10,.87-1.41,1.59-.04,.10-.09,.20-.29,.11s-.16-.19-.11-.29z"/>
<path d="m2174.09,428.14c.06-.39,.22-.74,.49-1.01,.26-.28,.63-.48,1.13-.62,.11-.03,.21-.06,.27,.15s-.05,.24-.15,.27c-.41,.11-.72,.28-.92,.50-.20,.21-.32,.48-.37,.78-.02,.11-.04,.21-.25,.18s-.20-.14-.18-.25z"/>
<path d="m2159.23,433.08c-.24,.38-.46,.77-.62,1.19-.15,.42-.23,.87-.20,1.40,.01,.11,.02,.22-.20,.23s-.23-.09-.24-.20c-.04-.59,.06-1.11,.22-1.58,.16-.46,.40-.88,.66-1.28,.06-.09,.12-.19,.30-.07,.19,.12,.13,.21,.07,.30z"/>
<path d="m2163.49,434.99v.66c0,.11,0,.22-.22,.22s-.22-.11-.22-.22v-.66c0-.11,0-.22,.22-.22s.22,.11,.22,.22z"/>
<path d="m2160.72,430.23c.44,.16,.87,.24,1.31,.25,.44,0,.89-.06,1.33-.16,.11-.02,.21-.05,.26,.16s-.06,.24-.16,.27c-.48,.11-.96,.18-1.44,.17-.49-.01-.97-.09-1.46-.28-.11-.04-.21-.08-.13-.28,.08-.21,.18-.16,.28-.13z"/>
<path d="m2163.46,422.24c-.37-.01-.66,.10-.88,.27-.29,.22-.47,.53-.55,.80-.03,.11-.06,.21-.27,.15s-.18-.17-.15-.27c.11-.35,.34-.74,.71-1.02,.29-.22,.68-.37,1.15-.36,.11,0,.22,.01,.22,.22,0,.22-.11,.22-.22,.22z"/>
<path d="m2159.03,422.69c-.33,.14-.59,.30-.79,.46-.18,.15-.30,.32-.35,.48-.04,.11-.07,.21-.28,.14s-.17-.17-.14-.28c.08-.25,.25-.47,.49-.68,.23-.19,.53-.37,.91-.53,.10-.04,.20-.08,.28,.12,.09,.20-.01,.25-.12,.29z"/>
<path d="m2156.30,422.77c-.27,.19-.50,.39-.69,.62s-.34,.49-.45,.77c-.04,.10-.07,.21-.28,.13-.20-.07-.17-.18-.13-.28,.12-.33,.30-.63,.52-.90s.48-.50,.78-.71c.09-.06,.18-.12,.31,.06s.04,.24-.06,.31z"/>
<path d="m2152.79,425.58c-.29,.22-.57,.46-.84,.74s-.52,.58-.76,.91c-.06,.09-.13,.18-.31,.05s-.11-.22-.05-.31c.25-.35,.52-.67,.80-.96s.58-.55,.89-.78c.09-.07,.18-.13,.31,.04,.13,.18,.04,.24-.05,.31z"/>
<path d="m2153.14,429.45c-.21,.23-.42,.46-.63,.68l-.64,.68c-.07,.08-.15,.16-.31,.01s-.09-.23-.01-.31l.63-.68c.21-.22,.42-.45,.64-.68,.07-.08,.15-.16,.31-.01s.09,.23,.01,.31z"/>
<path d="m2149.59,430.48v1.36c0,.11,0,.22-.22,.22s-.22-.11-.22-.22v-1.36c0-.11,0-.22,.22-.22s.22,.11,.22,.22z"/>
<path d="m2154.14,436.46c-.07,.74-.14,1.48-.21,2.23-.01,.07-.01,.14-.02,.21-.01,.11-.02,.22-.24,.20s-.21-.13-.20-.24c.01-.07,.01-.14,.02-.21,.07-.74,.14-1.49,.21-2.23,.01-.11,.02-.22,.24-.20s.21,.13,.20,.24z"/>
<path d="m2151.47,434.48c-.01,.48-.03,.97-.05,1.45,0,.11-.01,.22-.23,.21s-.21-.12-.21-.22c.01-.49,.03-.97,.05-1.46,0-.11,.01-.22,.23-.21s.21,.12,.21,.23z"/>
<path d="m2148.99,415.54c.46,.17,.87,.41,1.20,.73,.34,.33,.60,.74,.77,1.24,.04,.11,.07,.21-.14,.28s-.24-.04-.28-.14c-.15-.44-.38-.79-.66-1.07-.29-.28-.64-.49-1.05-.64-.10-.04-.20-.08-.13-.28,.08-.21,.18-.17,.28-.13z"/>
<path d="m2170.77,443.94c.42,.95,.65,1.90,.66,2.84,.02,.95-.17,1.90-.57,2.85-.04,.10-.08,.20-.28,.12s-.16-.19-.12-.29c.37-.89,.55-1.78,.53-2.67-.01-.89-.22-1.78-.62-2.67-.05-.10-.09-.20,.11-.29s.25,.01,.29,.11z"/>
<path d="m2163.67,452.15c.31-1.07,.76-2.00,1.28-2.85s1.11-1.62,1.70-2.38c.68-.88,1.13-1.84,1.37-2.82,.26-1.06,.27-2.16,.08-3.20-.02-.11-.04-.21,.18-.25,.21-.04,.24,.07,.25,.18,.20,1.10,.19,2.25-.08,3.38-.25,1.04-.72,2.06-1.45,2.99-.58,.75-1.16,1.51-1.67,2.34-.50,.82-.94,1.72-1.23,2.74-.03,.11-.06,.21-.27,.15s-.18-.16-.15-.27z"/>
<path d="m2154.54,449.74c.15-.40,.37-.75,.67-1.06s.67-.57,1.11-.78c.10-.05,.20-.09,.29,.10,.09,.20,0,.25-.11,.29-.40,.19-.73,.42-.99,.69-.26,.26-.45,.57-.57,.91-.04,.10-.08,.21-.28,.13-.20-.07-.17-.18-.13-.28z"/>
<path d="m2152.77,449.10c.34-.44,.68-.85,1.07-1.21,.40-.37,.85-.68,1.37-.89,.10-.04,.20-.08,.28,.12,.08,.21-.02,.25-.13,.28-.47,.19-.87,.47-1.23,.80-.37,.34-.70,.75-1.02,1.16-.07,.09-.13,.18-.31,.04-.18-.13-.11-.22-.04-.31z"/>
<path d="m2162.23,439.72c.38,.17,.74,.25,1.09,.26s.69-.04,1.02-.13c.11-.03,.21-.06,.27,.15s-.05,.24-.15,.27c-.37,.11-.75,.16-1.15,.15s-.81-.11-1.25-.30c-.10-.05-.20-.09-.11-.29s.19-.15,.29-.11z"/>
<path d="m2157.52,439.11c.11-.13,.22-.25,.33-.38l.04-.05c.07-.08,.15-.16,.31-.02,.16,.15,.09,.23,.02,.31l-.04,.05c-.11,.13-.22,.25-.34,.38-.07,.08-.14,.16-.31,.02-.16-.14-.09-.23-.02-.31z"/>
<path d="m2259.36,468.49c.21,.23,.39,.47,.55,.73,.15,.26,.27,.53,.37,.82,.04,.11,.07,.21-.14,.27-.21,.07-.24-.04-.28-.14-.08-.26-.19-.50-.33-.73-.13-.23-.30-.45-.49-.65-.07-.08-.15-.16,.01-.31s.24-.07,.31,.01z"/>
<path d="m2146.30,521.55c.48,.44,.98,.84,1.53,1.12,.54,.27,1.14,.44,1.82,.44,.11,0,.22,0,.22,.22s-.11,.22-.22,.22c-.75,0-1.41-.19-2.02-.49-.59-.30-1.13-.72-1.63-1.18-.08-.07-.16-.15-.01-.31s.23-.09,.31-.01z"/>
</g>
<g fill="#f00">
<path d="m2231.64,420.25c2.51,.11,4.93,.01,6.99-.33-2.20,1.59-5.01,2.66-8.04,3.16,.59-.46,.97-.94,1.14-1.43,.16-.47,.13-.94-.09-1.40z"/>
<path d="m2225.65,419.63c1.63,.27,3.32,.46,4.99,.57,.02,.04,.05,.07,.07,.11,.27,.37,.35,.73,.23,1.08-.14,.40-.52,.82-1.14,1.25-.17,.12-.34,.24-.10,.57-1.11,.14-2.24,.20-3.39,.18-.58-.01-1.15-.04-1.73-.09,.06-.03,.12-.09,.17-.14,.61-.64,1.00-1.30,1.11-1.99,.08-.51,.02-1.02-.21-1.53z"/>
<path d="m2181.39,406.91c2.82-.37,5.69-.46,8.61-.39,.96,.39,1.67,.96,2.11,1.71,.48,.84,.65,1.94,.45,3.31-.03,.20-.06,.41,.35,.46,.41,.06,.44-.15,.46-.35,.22-1.56,.02-2.83-.55-3.83-.28-.48-.64-.89-1.08-1.24,.26,.01,.52,.02,.78,.04,3.36,.18,5.97,1.14,8.89,2.59,.02,.02,.05,.05,.07,.08,.62,.65,.83,1.32,.73,2.01-.11,.73-.55,1.52-1.25,2.33-.13,.16-.27,.31,.05,.58,.31,.27,.45,.11,.58-.05,.79-.93,1.31-1.85,1.44-2.75,.07-.51,.03-.99-.15-1.47,2.46,1.22,4.96,2.39,7.39,3.67,.05,.03,.10,.05,.15,.08,0,.05,.02,.11,.04,.16,.20,.69,.12,1.28-.22,1.79-.37,.53-1.04,.99-2.01,1.35-.19,.07-.38,.14-.24,.53,.14,.38,.34,.31,.53,.24,1.14-.43,1.94-.98,2.40-1.66,.39-.57,.54-1.20,.45-1.91,1.61,.87,3.22,1.77,4.87,2.56l.01,.01c.29,.58,.34,1.10,.11,1.58-.24,.51-.80,.99-1.69,1.43-.18,.09-.37,.18-.19,.55s.37,.28,.55,.19c1.07-.53,1.75-1.14,2.07-1.82,.22-.47,.28-.95,.18-1.46,.57,.25,1.15,.49,1.74,.71,1.59,.59,3.51,1.10,5.57,1.48,.01,.02,.03,.04,.05,.06,.38,.53,.51,1.04,.42,1.53-.09,.51-.40,1.03-.90,1.55-.14,.15-.28,.29,.01,.58,.05,.05,.09,.08,.13,.11-6.25-.64-11.81-3.63-17.63-5.88-.69-.27-1.39-.53-2.08-.80-2.15-.81-4.32-1.91-6.48-2.79-.07-.07-.18-.11-.28-.14-.15-.05-.29-.10-.44-.14-.09-.04-.19-.07-.28-.11,.01,.01,.03,.02,.04,.03-1.97-.63-3.96-1.12-5.98-1.40-2.24-.31-4.52-.37-6.86-.07-.13-.02-.25-.04-.38-.06,.20-1.23,.04-2.31-.57-3.25-.43-.67-1.08-1.26-1.98-1.75z"/>
<path d="m2171.16,409.66c2.87-1.25,5.78-2.05,8.75-2.54,1.36,.54,2.26,1.20,2.77,1.98,.49,.77,.61,1.67,.44,2.71-1.26-.12-2.51-.11-3.73,.02-1.37,.15-2.71,.46-4.03,.93-.66-1.39-1.55-2.23-2.59-2.69-.51-.23-1.05-.36-1.61-.42z"/>
<path d="m2202.63,425.58c-.77-.49-1.55-.97-2.36-1.41-3.89-2.14-8.35-3.46-12.82-3.63,.04-.03,.07-.07,.11-.10,1.59-1.62,1.94-3.15,1.40-4.58-.42-1.11-1.39-2.14-2.73-3.07,1.50-.08,2.89,.01,4.45,.23,2.20,.31,5.05,1.05,7.65,2.10,.64,1.40,.82,2.63,.54,3.67-.29,1.09-1.11,2.00-2.43,2.75-.18,.10-.36,.20-.16,.56s.38,.26,.56,.15c1.53-.86,2.47-1.94,2.82-3.26,.27-1.02,.19-2.16-.26-3.43,1.76,.79,3.35,1.73,4.46,2.76,1.45,1.00,2.88,2.01,4.28,3.07,.01,1.78-.51,2.79-1.37,3.32-.91,.55-2.21,.62-3.69,.47-.20-.02-.41-.04-.45,.37v.02z"/>
<path d="m2211.19,432.02c-2.60-2.03-5.14-4.15-7.87-5.98,1.51,.12,2.86,0,3.88-.61,.99-.61,1.64-1.67,1.75-3.40,1.63,1.26,3.20,2.59,4.69,4.02,.75,.71,1.50,1.41,2.27,2.10,0,.01,.01,.02,.01,.04,.18,.64,.24,1.19,.19,1.65-.05,.45-.21,.82-.47,1.11-.27,.30-.66,.52-1.15,.65-.73,.21-1.68,.25-2.85,.12-.19-.02-.39-.04-.44,.31z"/>
<path d="m2220.16,437.93c-.90-.46-1.76-.94-2.59-1.43-1.99-1.18-3.86-2.53-5.69-3.94,1.12,.09,2.06,.03,2.82-.18,.65-.18,1.17-.48,1.54-.89,.38-.42,.61-.94,.68-1.58,.03-.28,.03-.58-.01-.90,1.79,1.53,3.67,2.95,5.70,4.19,1.06,.65,2.13,1.26,3.19,1.83-.01,.07,0,.14,.01,.22,.13,.82-.33,1.34-1.17,1.67-.98,.39-2.44,.55-4.11,.65-.19,.01-.37,.02-.39,.34z"/>
<path d="m2229.74,441.69c-3.04-.83-5.98-1.99-8.67-3.30,1.54-.11,2.90-.29,3.88-.68,1.11-.44,1.75-1.12,1.71-2.21,1.78,.90,3.56,1.68,5.37,2.32,.32,.71,.34,1.29,.04,1.78-.36,.60-1.15,1.10-2.13,1.53-.19,.08-.38,.17-.21,.54v.01z"/>
<path d="m2249.70,439.66c.26-.04,1.86-.46,1.03,.15-5.88,3.85-13.34,3.84-20.37,2.03,1.09-.49,1.98-1.08,2.43-1.82,.34-.55,.40-1.18,.24-1.87,2.24,.73,4.51,1.25,6.85,1.55,.01,.36-.09,.72-.37,1.07-.37,.46-1.00,.91-2.03,1.36-.19,.08-.38,.16-.21,.54,.16,.38,.35,.29,.54,.21,1.16-.51,1.91-1.05,2.35-1.60,.39-.49,.55-.98,.55-1.49,2.89,.31,5.88,.27,9.00-.14z"/>
<path d="m2209.04,540.95c-.44,.46-.81,.97-1.17,1.57-1.71,.57-3.22,1.42-5.06,1.34,0,1.19,.39,1.71,1.58,1.72,2.27-1.14,2.78-1.35,2.98-1.19,.28,.24-.32,1.87-2.20,3.19-.29,.18-.28,.29-.11,.59,1.59,2.49,5.76,1.60,8.00,1.01,1.60-.42,4.49-2.32,5.29-3.92,.31-.73-.39-1.69-1.09-2.47-1.77,.27-2.38-.55-2.10-1.12-1.87-.66-3.95-.80-6.12-.72z"/>
<path d="m2145.11,520.80c-1.30,1.06-2.75,1.90-4.44,2.46-.64,.21-2.19,.59-2.34,1.40-.02,.29,1.04,.92,1.72,.55,1.88-1.80,2.82-.80,.66,1.04-.17,.35-.03,.74,.34,1.07,1.95,1.75,6.78,2.32,8.98,.93,1.63-1.02,2.48-2.14,1.06-3.69,.01-.35,.05-.69,.11-1.04l-2.69-.27-1.65-.96-1.75-1.49z"/>
<path d="m2187.19,535.44c-.16,.02-.33,.04-.49,.07-.87,.94,1.52,.59,2.79,1.37,.58,.35,.83,1.04,.60,2.00-1.17,2.79-7.70,1.89-9.87,.74-1.01-.53-1.05-1.14-1.01-2.01,.45,0,.91-.03,1.37-.10,.78-.11,1.55-.34,2.31-.77,.21-.12,.43-.25,.19-.67-.24-.43-.46-.31-.67-.19-.64,.36-1.30,.56-1.96,.65-.68,.10-1.38,.10-2.05,.07h-.17c-.38-.22-.67-.48-.51-.71,.16-.22,.79,.02,.91,.06,1.01-.47,1.89-.77,2.98-.98,.15-.15,.29-.31,.44-.46,1.99,.17,3.89,.47,5.15,.93z"/>
<path d="m2157.00,533.73c-.40,.24-.54,.58-.83,1.21-1.14,1.15-2.23,1.84-3.69,2.50-1.21,.55-.04,1.08,.81,1.66,.77,.57,1.78-.67,2.41-1.61,.69-1.04,1.39-.73,.94,.08-.50,.89-.86,2.17-.91,2.84-.26,.72,2.48,1.27,2.95,1.29,1.67,.08,3.77-1.55,5.08-2.38,1.09-1.11,.92-2.08,.44-3.43l.01-.09c-.70,.02-1.36-.06-2.01-.20-.79-.18-1.57-.45-2.36-.78-.10-.04-.20-.08-.12-.29,.05-.13,.11-.16,.18-.15l-2.88-.66z"/>
<path d="m2168.69,422.43c.46-.02,.92-.04,1.37,.01,.85,.10,1.66,.47,2.51,.57,2.84-1.07,5.19-1.66,7.22-1.57,2.37-.69,4.83-.98,7.29-.92-.03-.02-.06-.05-.09-.08-.29-.29-.15-.44,0-.58,1.33-1.35,1.64-2.59,1.21-3.71-.44-1.16-1.64-2.25-3.31-3.25-1.78,.20-3.49-.28-5.38-.07-1.18,.13-2.34,.39-3.48,.77,.95,.34,1.78,.90,2.46,1.70,.84,.99,1.44,2.34,1.76,4.04,.04,.20,.07,.40-.33,.48s-.44-.13-.48-.33c-.29-1.55-.83-2.77-1.58-3.66-.79-1.13-2.60-1.57-3.17-1.80-1.89,.19-3.75,.40-5.37,.82-1.22,.31-2.29,.74-3.11,1.38,1.22-.26,2.49-.21,3.59,.34,1.05,.52,1.94,1.50,2.50,3.09,.07,.19,.13,.39-.26,.52s-.46-.06-.52-.26c-.47-1.37-1.21-2.19-2.08-2.62-1.73-.86-5.30-.11-6.81,1.01-.88,.66-1.76,1.51-2.63,2.50-.09,.11-.19,.21-.31,.22,3.24,.22,6.50,.39,9.02,1.40zm-9.61-1.83c-.07-.18,.05-.31,.16-.44,.91-1.03,1.83-1.94,2.78-2.64,.92-.68,1.87-1.17,2.85-1.40,1.00-1.11,2.48-1.78,4.20-2.22,1.67-.43,3.58-.65,5.51-.84-.57-1.15-1.30-1.84-2.14-2.21-.90-.40-1.94-.46-3.05-.35-2.33,.80-4.40,2.05-6.39,3.46,.18,0,.36,0,.53,.01,.59,.04,1.12-.05,1.61,.14,.20,.07,.39,.14,.25,.53-.17,.47-1.46,.18-1.91,.15-.51-.03-1.07,.01-1.69,.16-.10,.02-.19,.05-.28,.02-2.09,1.29-3.67,2.60-5.36,4.03,1.28,.45,2.28,.98,2.93,1.60z"/>
</g>
</g>
<g>
<path fill="#0093dd" d="m2400.96,660.34,87.52-198.37-64.56-104.24-115.13,42.63-53.29,209.65c50.22,12.81,98.82,29.73,145.45,50.34z"/>
<path fill="#fff" d="m2289.35,476.85c57.67,14.71,113.50,34.14,167.05,57.82l-33.77,76.57c-49.34-21.81-100.76-39.71-153.90-53.26z"/>
<path fill="#f00" d="m2428.06,598.94,22.56-51.13c-52.83-23.36-107.90-42.52-164.79-57.04l-13.30,52.31c53.96,13.77,106.20,31.95,156.31,54.10l-.78,1.76z"/>
<path fill="#000" d="m2302.07,530.61c1.51-.95,3.12-.72,4.74-.46,1.31-.49,2.82-.66,4.46-.60,.70-.38,1.51-.65,2.43-.82,.49-.38,.51-.79,.07-1.23-.41-.50-.64-.99-.67-1.49-2.60-1.51-3.56-3.81-4.55-6.09-1.48-.39-2.17-.89-2.33-1.45-.72-.07-1.43-.14-2.14-.22-3.37,.37-4.24-.72-5.44-1.61-1.00-.33-1.87-.88-2.43-1.93-.37-.47-.74-.93-1.11-1.40-.92-1.17-.64-2.72,.75-2.63,.98,.11,1.95,.11,2.85-.28,1.05-.47,2.62-.46,3.81-.36,1.41-.08,2.30-.99,3.67-2.27-.01-.55-.01-1.09-.02-1.64-.22-.59,.06-.85,.84-.77,1.83,.06,2.92,.92,3.66,2.14,2.13,.37,3.81,1.39,4.94,3.18,2.83,.01,4.74,1.08,4.97,2.13,.17,.77-.66,1.65-1.94,2.59,.01,.19,.02,.39,.02,.58,.76,.66,1.26,1.32,1.52,1.97,1.59,.61,3.11,1.43,4.53,2.63,4.05-.47,10.88,2.47,20.11,8.36,5.99,1.07,11.80,2.73,17.38,5.14,1.18,.04,2.36,.07,3.53,.11,10.01-1.48,19.71-.34,28.71,6.54,3.40,.41,6.45,1.48,9.40,2.70,2.19,.90,4.42,1.25,6.67,1.46,3.64,.35,7.33,1.25,10.99,2.95,4.11,.92,7.95,2.21,10.33,5.09,1.69,2.04,1.28,3.92-.87,4.70-1.30,2.74-3.89,2.86-7.77,1.51-2.67,.49-5.61-1.65-8.28-3.66-3.71-1.19-7.12-3.33-10.49-5.61-1.75-1.31-3.52-2.14-5.24-2.51-1.35-.29-2.56-.48-3.37,0-.40,.24-.35,.38,0,.67,.94,.79,1.60,1.97,1.81,3.39,.19,1.25-.01,2.69,.06,4.22,.08,1.61,1.05,2.78,2.67,3.78,1.11,.68,2.43,1.40,4.34,1.67,.91,.18,1.17,.71,1.14,1.40,.51,2.44,.98,4.90,1.87,7.11,.25,.63,.73,.93,1.45,1.46,2.47,1.78,1.19,3.77-1.06,4.20-1.97,1.74-3.67,2.91-5.69,3.37-1.61,.54-2.27-.12-2.81-.91-.97-.02-1.46-.41-1.87-1.04-1.97-1.45-.29-3.97,4.42-2.89,.10-.55,.50-.72,.90-.71-.28-1.22-.44-2.58,.09-3.85-.42-.27-.78-.61-1.39-.81-1.70-.54-3.31-1.32-4.58-2.51-2.41-2.27-6.18-4.17-9.81-6.08-3.00-.15-5.23-1.53-7.58-2.70-1.06-.01-2.12-.03-3.18-.04-.93-.31-1.69,.01-2.25,.68-.94,1.14-2.03,.95-3.32,.80-1.48-.17-2.98-.06-4.46-.08-.73,.18-1.45,.41-2.24,.42-1.67-.09-3.30-.11-4.41,.82-.92,.97-1.84,.90-2.76,.54-.69-.32-1.19-.66-1.48-1.02-1.16-.24-1.91-.53-2.16-.88-1.95-.55-2.50-1.10-2.41-1.65-2.59-.62-1.36-2.66,.32-2.73,1.98-.08,3.79,.30,5.73,.57,1.63,.46,3.64,.19,4.97-1.01,.86-.78,1.18-1.45,2.23-2.03-3.35-.22-5.82-.81-7.64-1.96-4.90-3.09-8.82-3.84-11.94-1.22-.83,.47-1.48,.66-2.37,.32-.75-.29-1.71-.29-2.46-.12-1.77,.40-3.52,.18-5.29-.46-2.59,.65-5.17,.79-7.76,.26-2.19,1.15-3.79,1.28-4.81,.40-.96-.54-1.87-1.09-2.73-1.68-1.39-.21-1.99-.56-2.05-1.02-1.78-.20-2.00-.85-1.99-1.56-.74-.85-.46-1.50,.28-2.05,1.32-.55,2.69-.75,4.21,.03,.91,.43,1.58,.85,2.13,1.28,1.01-.12,1.88,0,2.64,.28,.56-.88,2.15-.92,3.89-.82,.87-.58,1.91-.99,3.24-1.11-.04-.21-.08-.42-.11-.62-1.75-.46-2.65-1.73-3.52-3.01-2.69-.05-4.62-1.18-6.54-2.36-1.58,.13-2.85-.39-4.08-1.13-1.00,.08-2.11,.12-3.16-.15-2.08,.57-4.05,.53-5.91,0-1.31,.12-2.36-.01-3.44-.11-1.23,1.41-2.61,1.66-4.12,.94-.83-1.05-2.01-1.74-3.50-2.13-1.13-.37-1.48-.86-1.68-1.39-1.38-.85-1.10-1.69,.23-2.33,1.00-.48,2.25-.57,4.15,.37,.62,.23,1.31,.39,2.09,.45z"/>
<path fill="#fff" d="m2368.01,550.71c-.13-.23-.41-.81-1.42-.23-3.13-.17-6.63-.13-9.26-1.68-2.74-1.61-5.56-3.29-8.59-3.17,.90-.85,2.02-1.43,3.32-1.78,1.74-.46,3.80-.49,6.08-.12,3.20,.52,6.02,1.14,8.20,1.96,2.10,.79,3.58,1.77,4.23,3.03,.02,.03,.15,.18,.18,.20,.84,.54,1.57,1.09,2.18,1.67,.46,.43,.86,.88,1.20,1.36-.99,.09-2.01,.02-3.01-.18-1.10-.22-2.16-.59-3.12-1.08z"/>
<path fill="#000" d="m2375.21,399.62,.18,.94,3.94,20.40-15.67,13.66-.72,.63,.91,.32,19.64,6.79,3.99,20.40,.19,.94,.72-.63,15.70-13.61,19.67,6.74,.91,.31-.18-.94-3.94-20.41,15.67-13.66,.72-.63-.91-.31-19.64-6.80-3.99-20.40-.19-.94-.72,.63-15.71,13.62-19.66-6.75z"/>
<g fill="#f7db17">
<path d="m2365.61,434.39,14.64-12.76,18.41,6.34z"/>
<path d="m2401.10,427.50,14.69-12.77,18.35,6.35z"/>
<path d="m2434.27,421.73-14.64,12.76-18.41-6.34z"/>
<path d="m2398.78,428.63-14.69,12.76-18.35-6.34z"/>
<path d="m2377.29,401.50,18.37,6.30,3.72,19.11z"/>
<path d="m2401.01,428.78,18.40,6.34,3.68,19.07z"/>
<path d="m2422.59,454.62-18.37-6.29-3.72-19.11z"/>
<path d="m2398.87,427.34-18.40-6.33-3.68-19.07z"/>
<path d="m2411.62,395.16,3.73,19.06-14.69,12.77z"/>
<path d="m2399.85,429.34,3.71,19.11-14.67,12.73z"/>
<path d="m2388.26,460.96-3.73-19.06,14.69-12.77z"/>
<path d="m2400.03,426.78-3.71-19.11,14.67-12.72z"/>
</g>
</g>
</g>
</g>
</svg>